<?xml version="1.0" encoding="UTF-8"?>
<svg xmlns="http://www.w3.org/2000/svg" xmlns:xlink="http://www.w3.org/1999/xlink" width="24px" height="24px" viewBox="0 0 24 24" version="1.1">
<g id="surface1">
<path style=" stroke:none;fill-rule:nonzero;fill:rgb(0%,0%,0%);fill-opacity:1;" d="M 11.664062 1.871094 C 11.996094 1.871094 12.328125 1.871094 12.671875 1.871094 C 12.671875 2.03125 12.671875 2.1875 12.671875 2.351562 C 12.816406 2.351562 12.957031 2.351562 13.105469 2.351562 C 13.105469 2.496094 13.105469 2.636719 13.105469 2.785156 C 13.246094 2.785156 13.390625 2.785156 13.535156 2.785156 C 13.535156 2.941406 13.535156 3.101562 13.535156 3.265625 C 13.679688 3.265625 13.820312 3.265625 13.96875 3.265625 C 13.96875 3.4375 13.96875 3.613281 13.96875 3.792969 C 14.09375 3.792969 14.222656 3.792969 14.351562 3.792969 C 14.351562 3.949219 14.351562 4.109375 14.351562 4.273438 C 16.015625 4.273438 17.679688 4.273438 19.390625 4.273438 C 19.390625 4.445312 19.390625 4.621094 19.390625 4.800781 C 19.535156 4.800781 19.675781 4.800781 19.824219 4.800781 C 19.824219 5.609375 19.824219 6.414062 19.824219 7.246094 C 19.714844 7.246094 19.601562 7.246094 19.488281 7.246094 C 19.488281 7.375 19.488281 7.5 19.488281 7.632812 C 19.328125 7.632812 19.171875 7.632812 19.007812 7.632812 C 19.007812 7.804688 19.007812 7.980469 19.007812 8.160156 C 18.832031 8.160156 18.660156 8.160156 18.480469 8.160156 C 18.480469 8.320312 18.480469 8.476562 18.480469 8.640625 C 18.621094 8.640625 18.765625 8.640625 18.910156 8.640625 C 18.910156 8.78125 18.910156 8.925781 18.910156 9.070312 C 19.070312 9.070312 19.230469 9.070312 19.390625 9.070312 C 19.390625 9.214844 19.390625 9.355469 19.390625 9.503906 C 19.550781 9.503906 19.707031 9.503906 19.871094 9.503906 C 19.871094 9.664062 19.871094 9.820312 19.871094 9.984375 C 20.015625 9.984375 20.15625 9.984375 20.304688 9.984375 C 20.304688 10.125 20.304688 10.269531 20.304688 10.414062 C 20.460938 10.414062 20.621094 10.414062 20.785156 10.414062 C 20.785156 10.574219 20.785156 10.734375 20.785156 10.894531 C 20.941406 10.894531 21.101562 10.894531 21.265625 10.894531 C 21.265625 11.039062 21.265625 11.179688 21.265625 11.328125 C 21.40625 11.328125 21.550781 11.328125 21.695312 11.328125 C 21.695312 11.488281 21.695312 11.644531 21.695312 11.808594 C 21.839844 11.808594 21.980469 11.808594 22.128906 11.808594 C 22.128906 12.015625 22.128906 12.21875 22.128906 12.433594 C 22 12.433594 21.875 12.433594 21.742188 12.433594 C 21.742188 12.574219 21.742188 12.71875 21.742188 12.863281 C 21.601562 12.863281 21.457031 12.863281 21.3125 12.863281 C 21.3125 13.023438 21.3125 13.179688 21.3125 13.34375 C 21.152344 13.34375 20.996094 13.34375 20.832031 13.34375 C 20.832031 13.488281 20.832031 13.628906 20.832031 13.777344 C 20.6875 13.777344 20.546875 13.777344 20.398438 13.777344 C 20.398438 13.933594 20.398438 14.09375 20.398438 14.257812 C 20.242188 14.257812 20.082031 14.257812 19.921875 14.257812 C 19.921875 14.398438 19.921875 14.542969 19.921875 14.6875 C 19.777344 14.6875 19.636719 14.6875 19.488281 14.6875 C 19.488281 14.847656 19.488281 15.003906 19.488281 15.167969 C 19.34375 15.167969 19.203125 15.167969 19.054688 15.167969 C 19.054688 15.3125 19.054688 15.453125 19.054688 15.601562 C 18.914062 15.601562 18.769531 15.601562 18.625 15.601562 C 18.625 15.742188 18.625 15.886719 18.625 16.03125 C 18.480469 16.03125 18.339844 16.03125 18.191406 16.03125 C 18.191406 16.191406 18.191406 16.347656 18.191406 16.511719 C 18.050781 16.511719 17.90625 16.511719 17.761719 16.511719 C 17.761719 16.671875 17.761719 16.828125 17.761719 16.992188 C 17.601562 16.992188 17.441406 16.992188 17.28125 16.992188 C 17.28125 17.132812 17.28125 17.277344 17.28125 17.425781 C 17.136719 17.425781 16.996094 17.425781 16.847656 17.425781 C 16.847656 17.566406 16.847656 17.710938 16.847656 17.855469 C 16.691406 17.855469 16.53125 17.855469 16.367188 17.855469 C 16.367188 18.015625 16.367188 18.171875 16.367188 18.335938 C 16.210938 18.335938 16.050781 18.335938 15.886719 18.335938 C 15.886719 18.480469 15.886719 18.621094 15.886719 18.769531 C 15.746094 18.769531 15.601562 18.769531 15.457031 18.769531 C 15.457031 18.894531 15.457031 19.019531 15.457031 19.152344 C 15.328125 19.152344 15.203125 19.152344 15.070312 19.152344 C 15.070312 19.292969 15.070312 19.4375 15.070312 19.585938 C 14.914062 19.585938 14.753906 19.585938 14.59375 19.585938 C 14.59375 19.726562 14.59375 19.867188 14.59375 20.015625 C 14.449219 20.015625 14.308594 20.015625 14.160156 20.015625 C 14.160156 20.160156 14.160156 20.300781 14.160156 20.449219 C 14 20.449219 13.84375 20.449219 13.679688 20.449219 C 13.679688 20.605469 13.679688 20.765625 13.679688 20.929688 C 13.539062 20.929688 13.394531 20.929688 13.246094 20.929688 C 13.246094 21.070312 13.246094 21.214844 13.246094 21.359375 C 13.105469 21.359375 12.960938 21.359375 12.816406 21.359375 C 12.816406 21.519531 12.816406 21.675781 12.816406 21.839844 C 12.65625 21.839844 12.5 21.839844 12.335938 21.839844 C 12.335938 22 12.335938 22.15625 12.335938 22.320312 C 12.195312 22.320312 12.050781 22.320312 11.902344 22.320312 C 11.902344 22.160156 11.902344 22.003906 11.902344 21.839844 C 11.746094 21.839844 11.585938 21.839844 11.425781 21.839844 C 11.425781 21.699219 11.425781 21.554688 11.425781 21.40625 C 11.265625 21.40625 11.105469 21.40625 10.945312 21.40625 C 10.945312 21.265625 10.945312 21.121094 10.945312 20.976562 C 10.785156 20.976562 10.628906 20.976562 10.464844 20.976562 C 10.464844 20.816406 10.464844 20.660156 10.464844 20.496094 C 10.320312 20.496094 10.179688 20.496094 10.03125 20.496094 C 10.03125 20.351562 10.03125 20.210938 10.03125 20.0625 C 9.875 20.0625 9.714844 20.0625 9.550781 20.0625 C 9.550781 19.921875 9.550781 19.777344 9.550781 19.632812 C 9.410156 19.632812 9.265625 19.632812 9.121094 19.632812 C 9.121094 19.488281 9.121094 19.347656 9.121094 19.199219 C 8.105469 19.199219 7.09375 19.199219 6.046875 19.199219 C 6.046875 18.960938 6.046875 18.726562 6.046875 18.480469 C 5.875 18.480469 5.699219 18.480469 5.519531 18.480469 C 5.519531 17.6875 5.519531 16.894531 5.519531 16.078125 C 5.664062 16.078125 5.804688 16.078125 5.953125 16.078125 C 5.953125 15.953125 5.953125 15.828125 5.953125 15.695312 C 5.777344 15.695312 5.605469 15.695312 5.425781 15.695312 C 5.425781 15.539062 5.425781 15.378906 5.425781 15.214844 C 5.28125 15.214844 5.140625 15.214844 4.992188 15.214844 C 4.992188 15.074219 4.992188 14.929688 4.992188 14.785156 C 4.847656 14.785156 4.707031 14.785156 4.558594 14.785156 C 4.558594 14.625 4.558594 14.46875 4.558594 14.304688 C 4.433594 14.304688 4.304688 14.304688 4.175781 14.304688 C 4.175781 14.144531 4.175781 13.988281 4.175781 13.824219 C 4.035156 13.824219 3.890625 13.824219 3.742188 13.824219 C 3.742188 13.664062 3.742188 13.507812 3.742188 13.34375 C 3.601562 13.34375 3.457031 13.34375 3.3125 13.34375 C 3.3125 13.203125 3.3125 13.058594 3.3125 12.910156 C 3.167969 12.910156 3.027344 12.910156 2.878906 12.910156 C 2.878906 12.769531 2.878906 12.625 2.878906 12.480469 C 2.738281 12.480469 2.59375 12.480469 2.449219 12.480469 C 2.449219 12.273438 2.449219 12.066406 2.449219 11.855469 C 2.589844 11.855469 2.734375 11.855469 2.878906 11.855469 C 2.878906 11.699219 2.878906 11.539062 2.878906 11.375 C 3.023438 11.375 3.164062 11.375 3.3125 11.375 C 3.3125 11.21875 3.3125 11.058594 3.3125 10.894531 C 3.46875 10.894531 3.628906 10.894531 3.792969 10.894531 C 3.792969 10.753906 3.792969 10.609375 3.792969 10.464844 C 3.933594 10.464844 4.078125 10.464844 4.222656 10.464844 C 4.222656 10.304688 4.222656 10.148438 4.222656 9.984375 C 4.382812 9.984375 4.539062 9.984375 4.703125 9.984375 C 4.703125 9.839844 4.703125 9.699219 4.703125 9.550781 C 4.847656 9.550781 4.988281 9.550781 5.136719 9.550781 C 5.136719 9.394531 5.136719 9.234375 5.136719 9.070312 C 5.292969 9.070312 5.453125 9.070312 5.617188 9.070312 C 5.617188 8.976562 5.617188 8.882812 5.617188 8.785156 C 5.472656 8.785156 5.332031 8.785156 5.183594 8.785156 C 5.183594 7.613281 5.183594 6.441406 5.183594 5.230469 C 5.328125 5.230469 5.46875 5.230469 5.617188 5.230469 C 5.617188 5.089844 5.617188 4.945312 5.617188 4.800781 C 5.757812 4.800781 5.902344 4.800781 6.046875 4.800781 C 6.046875 4.625 6.046875 4.453125 6.046875 4.273438 C 7.332031 4.273438 8.613281 4.273438 9.9375 4.273438 C 9.9375 4.113281 9.9375 3.957031 9.9375 3.792969 C 10.078125 3.792969 10.222656 3.792969 10.367188 3.792969 C 10.367188 3.632812 10.367188 3.476562 10.367188 3.3125 C 10.511719 3.3125 10.652344 3.3125 10.800781 3.3125 C 10.800781 3.152344 10.800781 2.996094 10.800781 2.832031 C 10.941406 2.832031 11.085938 2.832031 11.230469 2.832031 C 11.230469 2.671875 11.230469 2.515625 11.230469 2.351562 C 11.375 2.351562 11.515625 2.351562 11.664062 2.351562 C 11.664062 2.195312 11.664062 2.035156 11.664062 1.871094 Z M 11.664062 1.871094 "/>
<path style=" stroke:none;fill-rule:nonzero;fill:rgb(69.411767%,71.372551%,72.549021%);fill-opacity:1;" d="M 6.480469 4.894531 C 10.457031 4.894531 14.433594 4.894531 18.527344 4.894531 C 18.527344 5.007812 18.527344 5.117188 18.527344 5.230469 C 18.6875 5.230469 18.84375 5.230469 19.007812 5.230469 C 19.007812 5.707031 19.007812 6.183594 19.007812 6.671875 C 18.847656 6.671875 18.691406 6.671875 18.527344 6.671875 C 18.527344 6.832031 18.527344 6.988281 18.527344 7.152344 C 17.039062 7.152344 15.550781 7.152344 14.015625 7.152344 C 14.015625 7.261719 14.015625 7.375 14.015625 7.488281 C 13.953125 7.488281 13.890625 7.488281 13.824219 7.488281 C 13.824219 7.519531 13.824219 7.550781 13.824219 7.585938 C 13.808594 7.585938 13.792969 7.585938 13.777344 7.585938 C 13.777344 7.664062 13.777344 7.742188 13.777344 7.824219 C 13.761719 7.824219 13.746094 7.824219 13.726562 7.824219 C 13.726562 7.886719 13.726562 7.949219 13.726562 8.015625 C 13.710938 8.015625 13.695312 8.015625 13.679688 8.015625 C 13.679688 8.09375 13.679688 8.175781 13.679688 8.257812 C 13.664062 8.257812 13.648438 8.257812 13.632812 8.257812 C 13.632812 8.335938 13.632812 8.414062 13.632812 8.496094 C 13.617188 8.496094 13.601562 8.496094 13.585938 8.496094 C 13.585938 8.574219 13.585938 8.65625 13.585938 8.734375 C 13.566406 8.734375 13.550781 8.734375 13.535156 8.734375 C 13.535156 8.816406 13.535156 8.894531 13.535156 8.976562 C 13.519531 8.976562 13.503906 8.976562 13.488281 8.976562 C 13.488281 9.039062 13.488281 9.101562 13.488281 9.167969 C 13.472656 9.167969 13.457031 9.167969 13.441406 9.167969 C 13.441406 9.246094 13.441406 9.328125 13.441406 9.40625 C 13.425781 9.40625 13.410156 9.40625 13.390625 9.40625 C 13.390625 9.488281 13.390625 9.566406 13.390625 9.648438 C 13.375 9.648438 13.359375 9.648438 13.34375 9.648438 C 13.34375 9.726562 13.34375 9.804688 13.34375 9.886719 C 13.328125 9.886719 13.3125 9.886719 13.296875 9.886719 C 13.296875 9.953125 13.296875 10.015625 13.296875 10.078125 C 13.28125 10.078125 13.265625 10.078125 13.246094 10.078125 C 13.246094 10.160156 13.246094 10.238281 13.246094 10.320312 C 13.230469 10.320312 13.214844 10.320312 13.199219 10.320312 C 13.199219 10.398438 13.199219 10.476562 13.199219 10.558594 C 13.183594 10.558594 13.167969 10.558594 13.152344 10.558594 C 13.152344 10.640625 13.152344 10.71875 13.152344 10.800781 C 13.136719 10.800781 13.121094 10.800781 13.105469 10.800781 C 13.105469 10.878906 13.105469 10.957031 13.105469 11.039062 C 13.089844 11.039062 13.074219 11.039062 13.054688 11.039062 C 13.054688 11.101562 13.054688 11.167969 13.054688 11.230469 C 13.039062 11.230469 13.023438 11.230469 13.007812 11.230469 C 13.007812 11.3125 13.007812 11.390625 13.007812 11.472656 C 12.992188 11.472656 12.976562 11.472656 12.960938 11.472656 C 12.960938 11.550781 12.960938 11.628906 12.960938 11.710938 C 12.945312 11.710938 12.929688 11.710938 12.910156 11.710938 C 12.910156 11.792969 12.910156 11.871094 12.910156 11.953125 C 12.894531 11.953125 12.878906 11.953125 12.863281 11.953125 C 12.863281 12.015625 12.863281 12.078125 12.863281 12.144531 C 12.847656 12.144531 12.832031 12.144531 12.816406 12.144531 C 12.816406 12.222656 12.816406 12.300781 12.816406 12.382812 C 12.800781 12.382812 12.785156 12.382812 12.769531 12.382812 C 12.769531 12.464844 12.769531 12.542969 12.769531 12.625 C 12.753906 12.625 12.734375 12.625 12.71875 12.625 C 12.71875 12.703125 12.71875 12.78125 12.71875 12.863281 C 12.703125 12.863281 12.6875 12.863281 12.671875 12.863281 C 12.671875 12.941406 12.671875 13.023438 12.671875 13.105469 C 12.65625 13.105469 12.640625 13.105469 12.625 13.105469 C 12.625 13.167969 12.625 13.230469 12.625 13.296875 C 12.609375 13.296875 12.59375 13.296875 12.574219 13.296875 C 12.574219 13.375 12.574219 13.453125 12.574219 13.535156 C 12.558594 13.535156 12.542969 13.535156 12.527344 13.535156 C 12.527344 13.613281 12.527344 13.695312 12.527344 13.777344 C 12.511719 13.777344 12.496094 13.777344 12.480469 13.777344 C 12.480469 13.855469 12.480469 13.933594 12.480469 14.015625 C 12.464844 14.015625 12.449219 14.015625 12.433594 14.015625 C 12.433594 14.078125 12.433594 14.144531 12.433594 14.207031 C 12.417969 14.207031 12.398438 14.207031 12.382812 14.207031 C 12.382812 14.289062 12.382812 14.367188 12.382812 14.449219 C 12.367188 14.449219 12.351562 14.449219 12.335938 14.449219 C 12.335938 14.527344 12.335938 14.605469 12.335938 14.6875 C 12.320312 14.6875 12.304688 14.6875 12.289062 14.6875 C 12.289062 14.765625 12.289062 14.847656 12.289062 14.929688 C 12.273438 14.929688 12.257812 14.929688 12.238281 14.929688 C 12.238281 15.007812 12.238281 15.085938 12.238281 15.167969 C 12.222656 15.167969 12.207031 15.167969 12.191406 15.167969 C 12.191406 15.230469 12.191406 15.292969 12.191406 15.359375 C 12.175781 15.359375 12.160156 15.359375 12.144531 15.359375 C 12.144531 15.421875 12.144531 15.488281 12.144531 15.550781 C 12.128906 15.550781 12.113281 15.550781 12.097656 15.550781 C 12.097656 15.617188 12.097656 15.679688 12.097656 15.742188 C 12.082031 15.742188 12.0625 15.742188 12.046875 15.742188 C 12.046875 15.824219 12.046875 15.902344 12.046875 15.984375 C 12.03125 15.984375 12.015625 15.984375 12 15.984375 C 12 16.015625 12 16.046875 12 16.078125 C 12.140625 16.078125 12.285156 16.078125 12.433594 16.078125 C 12.433594 15.984375 12.433594 15.890625 12.433594 15.792969 C 12.75 15.792969 13.066406 15.792969 13.390625 15.792969 C 13.390625 16.203125 13.390625 16.617188 13.390625 17.039062 C 13.234375 17.039062 13.074219 17.039062 12.910156 17.039062 C 12.910156 17.199219 12.910156 17.355469 12.910156 17.519531 C 12.785156 17.519531 12.660156 17.519531 12.527344 17.519531 C 12.527344 17.664062 12.527344 17.804688 12.527344 17.953125 C 12.386719 17.953125 12.242188 17.953125 12.097656 17.953125 C 12.097656 18.09375 12.097656 18.238281 12.097656 18.382812 C 10.320312 18.382812 8.546875 18.382812 6.71875 18.382812 C 6.71875 18.210938 6.71875 18.035156 6.71875 17.855469 C 6.578125 17.855469 6.433594 17.855469 6.289062 17.855469 C 6.289062 17.414062 6.289062 16.96875 6.289062 16.511719 C 6.429688 16.511719 6.574219 16.511719 6.71875 16.511719 C 6.71875 16.371094 6.71875 16.226562 6.71875 16.078125 C 7.070312 16.078125 7.417969 16.078125 7.777344 16.078125 C 7.777344 16.03125 7.777344 15.984375 7.777344 15.9375 C 7.792969 15.9375 7.808594 15.9375 7.824219 15.9375 C 7.824219 15.855469 7.824219 15.777344 7.824219 15.695312 C 7.839844 15.695312 7.855469 15.695312 7.871094 15.695312 C 7.871094 15.617188 7.871094 15.539062 7.871094 15.457031 C 7.886719 15.457031 7.902344 15.457031 7.921875 15.457031 C 7.921875 15.375 7.921875 15.296875 7.921875 15.214844 C 7.9375 15.214844 7.953125 15.214844 7.96875 15.214844 C 7.96875 15.136719 7.96875 15.058594 7.96875 14.976562 C 7.984375 14.976562 8 14.976562 8.015625 14.976562 C 8.015625 14.898438 8.015625 14.816406 8.015625 14.734375 C 8.03125 14.734375 8.046875 14.734375 8.0625 14.734375 C 8.0625 14.65625 8.0625 14.578125 8.0625 14.496094 C 8.078125 14.496094 8.09375 14.496094 8.113281 14.496094 C 8.113281 14.417969 8.113281 14.335938 8.113281 14.257812 C 8.128906 14.257812 8.144531 14.257812 8.160156 14.257812 C 8.160156 14.175781 8.160156 14.097656 8.160156 14.015625 C 8.175781 14.015625 8.191406 14.015625 8.207031 14.015625 C 8.207031 13.9375 8.207031 13.859375 8.207031 13.777344 C 8.222656 13.777344 8.238281 13.777344 8.257812 13.777344 C 8.257812 13.695312 8.257812 13.617188 8.257812 13.535156 C 8.273438 13.535156 8.289062 13.535156 8.304688 13.535156 C 8.304688 13.457031 8.304688 13.378906 8.304688 13.296875 C 8.320312 13.296875 8.335938 13.296875 8.351562 13.296875 C 8.351562 13.21875 8.351562 13.136719 8.351562 13.054688 C 8.367188 13.054688 8.382812 13.054688 8.398438 13.054688 C 8.398438 12.976562 8.398438 12.898438 8.398438 12.816406 C 8.414062 12.816406 8.433594 12.816406 8.449219 12.816406 C 8.449219 12.738281 8.449219 12.65625 8.449219 12.574219 C 8.464844 12.574219 8.480469 12.574219 8.496094 12.574219 C 8.496094 12.496094 8.496094 12.417969 8.496094 12.335938 C 8.511719 12.335938 8.527344 12.335938 8.542969 12.335938 C 8.542969 12.257812 8.542969 12.175781 8.542969 12.097656 C 8.558594 12.097656 8.574219 12.097656 8.59375 12.097656 C 8.59375 12.015625 8.59375 11.9375 8.59375 11.855469 C 8.609375 11.855469 8.625 11.855469 8.640625 11.855469 C 8.640625 11.777344 8.640625 11.699219 8.640625 11.617188 C 8.65625 11.617188 8.671875 11.617188 8.6875 11.617188 C 8.6875 11.535156 8.6875 11.457031 8.6875 11.375 C 8.703125 11.375 8.71875 11.375 8.734375 11.375 C 8.734375 11.296875 8.734375 11.21875 8.734375 11.136719 C 8.75 11.136719 8.769531 11.136719 8.785156 11.136719 C 8.785156 11.058594 8.785156 10.976562 8.785156 10.894531 C 8.800781 10.894531 8.816406 10.894531 8.832031 10.894531 C 8.832031 10.816406 8.832031 10.738281 8.832031 10.65625 C 8.847656 10.65625 8.863281 10.65625 8.878906 10.65625 C 8.878906 10.578125 8.878906 10.496094 8.878906 10.414062 C 8.894531 10.414062 8.910156 10.414062 8.929688 10.414062 C 8.929688 10.335938 8.929688 10.257812 8.929688 10.175781 C 8.945312 10.175781 8.960938 10.175781 8.976562 10.175781 C 8.976562 10.097656 8.976562 10.019531 8.976562 9.9375 C 8.992188 9.9375 9.007812 9.9375 9.023438 9.9375 C 9.023438 9.855469 9.023438 9.777344 9.023438 9.695312 C 9.039062 9.695312 9.054688 9.695312 9.070312 9.695312 C 9.070312 9.617188 9.070312 9.539062 9.070312 9.457031 C 9.085938 9.457031 9.105469 9.457031 9.121094 9.457031 C 9.121094 9.375 9.121094 9.296875 9.121094 9.214844 C 9.136719 9.214844 9.152344 9.214844 9.167969 9.214844 C 9.167969 9.136719 9.167969 9.058594 9.167969 8.976562 C 9.183594 8.976562 9.199219 8.976562 9.214844 8.976562 C 9.214844 8.898438 9.214844 8.816406 9.214844 8.734375 C 9.230469 8.734375 9.246094 8.734375 9.265625 8.734375 C 9.265625 8.65625 9.265625 8.578125 9.265625 8.496094 C 9.28125 8.496094 9.296875 8.496094 9.3125 8.496094 C 9.3125 8.417969 9.3125 8.335938 9.3125 8.257812 C 9.328125 8.257812 9.34375 8.257812 9.359375 8.257812 C 9.359375 8.175781 9.359375 8.097656 9.359375 8.015625 C 9.375 8.015625 9.390625 8.015625 9.40625 8.015625 C 9.40625 7.9375 9.40625 7.859375 9.40625 7.777344 C 9.425781 7.777344 9.441406 7.777344 9.457031 7.777344 C 9.457031 7.679688 9.457031 7.585938 9.457031 7.488281 C 9.472656 7.488281 9.488281 7.488281 9.503906 7.488281 C 9.503906 7.394531 9.503906 7.296875 9.503906 7.199219 C 8.917969 7.199219 8.332031 7.199219 7.726562 7.199219 C 7.726562 7.3125 7.726562 7.421875 7.726562 7.535156 C 7.617188 7.535156 7.507812 7.535156 7.390625 7.535156 C 7.390625 7.726562 7.390625 7.917969 7.390625 8.113281 C 6.933594 8.113281 6.472656 8.113281 6 8.113281 C 6 7.175781 6 6.242188 6 5.28125 C 6.160156 5.28125 6.316406 5.28125 6.480469 5.28125 C 6.480469 5.152344 6.480469 5.027344 6.480469 4.894531 Z M 6.480469 4.894531 "/>
<path style=" stroke:none;fill-rule:nonzero;fill:rgb(16.470589%,47.058824%,17.647059%);fill-opacity:1;" d="M 14.640625 8.160156 C 15.605469 8.160156 16.574219 8.160156 17.566406 8.160156 C 17.566406 8.320312 17.566406 8.476562 17.566406 8.640625 C 17.710938 8.640625 17.851562 8.640625 18 8.640625 C 18 8.796875 18 8.957031 18 9.121094 C 18.160156 9.121094 18.316406 9.121094 18.480469 9.121094 C 18.480469 9.261719 18.480469 9.40625 18.480469 9.550781 C 18.621094 9.550781 18.765625 9.550781 18.910156 9.550781 C 18.910156 9.695312 18.910156 9.835938 18.910156 9.984375 C 19.054688 9.984375 19.195312 9.984375 19.34375 9.984375 C 19.34375 10.140625 19.34375 10.300781 19.34375 10.464844 C 19.503906 10.464844 19.660156 10.464844 19.824219 10.464844 C 19.824219 10.605469 19.824219 10.75 19.824219 10.894531 C 19.980469 10.894531 20.140625 10.894531 20.304688 10.894531 C 20.304688 11.054688 20.304688 11.210938 20.304688 11.375 C 20.460938 11.375 20.621094 11.375 20.785156 11.375 C 20.785156 11.519531 20.785156 11.660156 20.785156 11.808594 C 20.941406 11.808594 21.101562 11.808594 21.265625 11.808594 C 21.265625 12.015625 21.265625 12.21875 21.265625 12.433594 C 21.105469 12.433594 20.945312 12.433594 20.785156 12.433594 C 20.785156 12.574219 20.785156 12.71875 20.785156 12.863281 C 20.625 12.863281 20.46875 12.863281 20.304688 12.863281 C 20.304688 13.007812 20.304688 13.148438 20.304688 13.296875 C 20.160156 13.296875 20.019531 13.296875 19.871094 13.296875 C 19.871094 13.453125 19.871094 13.613281 19.871094 13.777344 C 19.730469 13.777344 19.585938 13.777344 19.441406 13.777344 C 19.441406 13.917969 19.441406 14.0625 19.441406 14.207031 C 19.28125 14.207031 19.125 14.207031 18.960938 14.207031 C 18.960938 14.351562 18.960938 14.492188 18.960938 14.640625 C 18.816406 14.640625 18.675781 14.640625 18.527344 14.640625 C 18.527344 14.796875 18.527344 14.957031 18.527344 15.121094 C 18.371094 15.121094 18.210938 15.121094 18.046875 15.121094 C 18.046875 15.261719 18.046875 15.40625 18.046875 15.550781 C 17.90625 15.550781 17.761719 15.550781 17.617188 15.550781 C 17.617188 15.710938 17.617188 15.867188 17.617188 16.03125 C 17.457031 16.03125 17.300781 16.03125 17.136719 16.03125 C 17.136719 16.175781 17.136719 16.316406 17.136719 16.464844 C 16.976562 16.464844 16.820312 16.464844 16.65625 16.464844 C 16.65625 16.621094 16.65625 16.78125 16.65625 16.945312 C 16.511719 16.945312 16.371094 16.945312 16.222656 16.945312 C 16.222656 17.085938 16.222656 17.230469 16.222656 17.375 C 16.066406 17.375 15.90625 17.375 15.742188 17.375 C 15.742188 17.519531 15.742188 17.660156 15.742188 17.808594 C 15.601562 17.808594 15.457031 17.808594 15.3125 17.808594 C 15.3125 17.949219 15.3125 18.09375 15.3125 18.238281 C 15.152344 18.238281 14.996094 18.238281 14.832031 18.238281 C 14.832031 18.398438 14.832031 18.558594 14.832031 18.71875 C 14.738281 18.71875 14.640625 18.71875 14.542969 18.71875 C 14.542969 18.863281 14.542969 19.003906 14.542969 19.152344 C 14.402344 19.152344 14.257812 19.152344 14.113281 19.152344 C 14.113281 19.277344 14.113281 19.40625 14.113281 19.535156 C 13.9375 19.535156 13.761719 19.535156 13.585938 19.535156 C 13.585938 19.679688 13.585938 19.820312 13.585938 19.96875 C 13.425781 19.96875 13.265625 19.96875 13.105469 19.96875 C 13.105469 20.125 13.105469 20.285156 13.105469 20.449219 C 12.976562 20.449219 12.851562 20.449219 12.71875 20.449219 C 12.71875 20.589844 12.71875 20.734375 12.71875 20.878906 C 12.59375 20.878906 12.464844 20.878906 12.335938 20.878906 C 12.335938 21.070312 12.335938 21.261719 12.335938 21.457031 C 12.195312 21.457031 12.050781 21.457031 11.902344 21.457031 C 11.902344 21.28125 11.902344 21.109375 11.902344 20.929688 C 11.746094 20.929688 11.585938 20.929688 11.425781 20.929688 C 11.425781 20.785156 11.425781 20.644531 11.425781 20.496094 C 11.28125 20.496094 11.140625 20.496094 10.992188 20.496094 C 10.992188 20.335938 10.992188 20.179688 10.992188 20.015625 C 10.832031 20.015625 10.675781 20.015625 10.511719 20.015625 C 10.511719 19.875 10.511719 19.730469 10.511719 19.585938 C 10.371094 19.585938 10.226562 19.585938 10.078125 19.585938 C 10.078125 19.457031 10.078125 19.332031 10.078125 19.199219 C 10.953125 19.199219 11.824219 19.199219 12.71875 19.199219 C 12.71875 19.105469 12.71875 19.011719 12.71875 18.910156 C 12.832031 18.910156 12.941406 18.910156 13.054688 18.910156 C 13.054688 18.753906 13.054688 18.59375 13.054688 18.433594 C 13.199219 18.433594 13.339844 18.433594 13.488281 18.433594 C 13.488281 18.273438 13.488281 18.113281 13.488281 17.953125 C 13.628906 17.953125 13.773438 17.953125 13.921875 17.953125 C 13.921875 17.792969 13.921875 17.636719 13.921875 17.472656 C 14.0625 17.472656 14.207031 17.472656 14.351562 17.472656 C 14.351562 16.839844 14.351562 16.203125 14.351562 15.550781 C 14.128906 15.550781 13.910156 15.550781 13.679688 15.550781 C 13.679688 15.347656 13.679688 15.140625 13.679688 14.929688 C 13.523438 14.929688 13.363281 14.929688 13.199219 14.929688 C 13.199219 14.800781 13.199219 14.675781 13.199219 14.542969 C 13.214844 14.542969 13.230469 14.542969 13.246094 14.542969 C 13.246094 14.480469 13.246094 14.417969 13.246094 14.351562 C 13.265625 14.351562 13.28125 14.351562 13.296875 14.351562 C 13.296875 14.273438 13.296875 14.195312 13.296875 14.113281 C 13.3125 14.113281 13.328125 14.113281 13.34375 14.113281 C 13.34375 14.03125 13.34375 13.953125 13.34375 13.871094 C 13.359375 13.871094 13.375 13.871094 13.390625 13.871094 C 13.390625 13.808594 13.390625 13.746094 13.390625 13.679688 C 13.40625 13.679688 13.421875 13.679688 13.441406 13.679688 C 13.441406 13.601562 13.441406 13.523438 13.441406 13.441406 C 13.457031 13.441406 13.472656 13.441406 13.488281 13.441406 C 13.488281 13.375 13.488281 13.3125 13.488281 13.246094 C 13.503906 13.246094 13.519531 13.246094 13.535156 13.246094 C 13.535156 13.167969 13.535156 13.089844 13.535156 13.007812 C 13.550781 13.007812 13.566406 13.007812 13.585938 13.007812 C 13.585938 12.945312 13.585938 12.882812 13.585938 12.816406 C 13.601562 12.816406 13.617188 12.816406 13.632812 12.816406 C 13.632812 12.738281 13.632812 12.65625 13.632812 12.574219 C 13.648438 12.574219 13.664062 12.574219 13.679688 12.574219 C 13.679688 12.496094 13.679688 12.417969 13.679688 12.335938 C 13.695312 12.335938 13.710938 12.335938 13.726562 12.335938 C 13.726562 12.273438 13.726562 12.210938 13.726562 12.144531 C 13.742188 12.144531 13.757812 12.144531 13.777344 12.144531 C 13.777344 12.066406 13.777344 11.984375 13.777344 11.902344 C 13.792969 11.902344 13.808594 11.902344 13.824219 11.902344 C 13.824219 11.839844 13.824219 11.777344 13.824219 11.710938 C 13.839844 11.710938 13.855469 11.710938 13.871094 11.710938 C 13.871094 11.632812 13.871094 11.554688 13.871094 11.472656 C 13.886719 11.472656 13.902344 11.472656 13.921875 11.472656 C 13.921875 11.410156 13.921875 11.34375 13.921875 11.28125 C 13.9375 11.28125 13.953125 11.28125 13.96875 11.28125 C 13.96875 11.199219 13.96875 11.121094 13.96875 11.039062 C 13.984375 11.039062 14 11.039062 14.015625 11.039062 C 14.015625 10.976562 14.015625 10.914062 14.015625 10.847656 C 14.03125 10.847656 14.046875 10.847656 14.0625 10.847656 C 14.0625 10.769531 14.0625 10.691406 14.0625 10.609375 C 14.078125 10.609375 14.09375 10.609375 14.113281 10.609375 C 14.113281 10.527344 14.113281 10.449219 14.113281 10.367188 C 14.128906 10.367188 14.144531 10.367188 14.160156 10.367188 C 14.160156 10.304688 14.160156 10.242188 14.160156 10.175781 C 14.175781 10.175781 14.191406 10.175781 14.207031 10.175781 C 14.207031 10.097656 14.207031 10.019531 14.207031 9.9375 C 14.222656 9.9375 14.238281 9.9375 14.257812 9.9375 C 14.257812 9.871094 14.257812 9.808594 14.257812 9.742188 C 14.273438 9.742188 14.289062 9.742188 14.304688 9.742188 C 14.304688 9.664062 14.304688 9.585938 14.304688 9.503906 C 14.320312 9.503906 14.335938 9.503906 14.351562 9.503906 C 14.351562 9.441406 14.351562 9.378906 14.351562 9.3125 C 14.367188 9.3125 14.382812 9.3125 14.398438 9.3125 C 14.398438 9.234375 14.398438 9.152344 14.398438 9.070312 C 14.414062 9.070312 14.433594 9.070312 14.449219 9.070312 C 14.449219 8.992188 14.449219 8.914062 14.449219 8.832031 C 14.464844 8.832031 14.480469 8.832031 14.496094 8.832031 C 14.496094 8.769531 14.496094 8.707031 14.496094 8.640625 C 14.511719 8.640625 14.527344 8.640625 14.542969 8.640625 C 14.542969 8.5625 14.542969 8.480469 14.542969 8.398438 C 14.558594 8.398438 14.574219 8.398438 14.59375 8.398438 C 14.59375 8.335938 14.59375 8.273438 14.59375 8.207031 C 14.609375 8.207031 14.625 8.207031 14.640625 8.207031 C 14.640625 8.191406 14.640625 8.175781 14.640625 8.160156 Z M 14.640625 8.160156 "/>
<path style=" stroke:none;fill-rule:nonzero;fill:rgb(16.862746%,47.450981%,17.647059%);fill-opacity:1;" d="M 8.304688 8.207031 C 8.429688 8.207031 8.558594 8.207031 8.6875 8.207031 C 8.6875 8.335938 8.6875 8.460938 8.6875 8.59375 C 8.671875 8.59375 8.65625 8.59375 8.640625 8.59375 C 8.640625 8.65625 8.640625 8.71875 8.640625 8.785156 C 8.625 8.785156 8.609375 8.785156 8.59375 8.785156 C 8.59375 8.863281 8.59375 8.941406 8.59375 9.023438 C 8.574219 9.023438 8.558594 9.023438 8.542969 9.023438 C 8.542969 9.101562 8.542969 9.183594 8.542969 9.265625 C 8.527344 9.265625 8.511719 9.265625 8.496094 9.265625 C 8.496094 9.328125 8.496094 9.390625 8.496094 9.457031 C 8.480469 9.457031 8.464844 9.457031 8.449219 9.457031 C 8.449219 9.535156 8.449219 9.613281 8.449219 9.695312 C 8.433594 9.695312 8.417969 9.695312 8.398438 9.695312 C 8.398438 9.773438 8.398438 9.855469 8.398438 9.9375 C 8.382812 9.9375 8.367188 9.9375 8.351562 9.9375 C 8.351562 10 8.351562 10.0625 8.351562 10.128906 C 8.335938 10.128906 8.320312 10.128906 8.304688 10.128906 C 8.304688 10.207031 8.304688 10.285156 8.304688 10.367188 C 8.289062 10.367188 8.273438 10.367188 8.257812 10.367188 C 8.257812 10.445312 8.257812 10.527344 8.257812 10.609375 C 8.238281 10.609375 8.222656 10.609375 8.207031 10.609375 C 8.207031 10.671875 8.207031 10.734375 8.207031 10.800781 C 8.191406 10.800781 8.175781 10.800781 8.160156 10.800781 C 8.160156 10.878906 8.160156 10.957031 8.160156 11.039062 C 8.144531 11.039062 8.128906 11.039062 8.113281 11.039062 C 8.113281 11.101562 8.113281 11.167969 8.113281 11.230469 C 8.097656 11.230469 8.082031 11.230469 8.0625 11.230469 C 8.0625 11.3125 8.0625 11.390625 8.0625 11.472656 C 8.046875 11.472656 8.03125 11.472656 8.015625 11.472656 C 8.015625 11.550781 8.015625 11.628906 8.015625 11.710938 C 8 11.710938 7.984375 11.710938 7.96875 11.710938 C 7.96875 11.792969 7.96875 11.871094 7.96875 11.953125 C 7.953125 11.953125 7.9375 11.953125 7.921875 11.953125 C 7.921875 12.015625 7.921875 12.078125 7.921875 12.144531 C 7.902344 12.144531 7.886719 12.144531 7.871094 12.144531 C 7.871094 12.222656 7.871094 12.300781 7.871094 12.382812 C 7.855469 12.382812 7.839844 12.382812 7.824219 12.382812 C 7.824219 12.449219 7.824219 12.511719 7.824219 12.574219 C 7.808594 12.574219 7.792969 12.574219 7.777344 12.574219 C 7.777344 12.65625 7.777344 12.734375 7.777344 12.816406 C 7.761719 12.816406 7.746094 12.816406 7.726562 12.816406 C 7.726562 12.878906 7.726562 12.941406 7.726562 13.007812 C 7.710938 13.007812 7.695312 13.007812 7.679688 13.007812 C 7.679688 13.085938 7.679688 13.167969 7.679688 13.246094 C 7.664062 13.246094 7.648438 13.246094 7.632812 13.246094 C 7.632812 13.328125 7.632812 13.40625 7.632812 13.488281 C 7.617188 13.488281 7.601562 13.488281 7.585938 13.488281 C 7.585938 13.550781 7.585938 13.613281 7.585938 13.679688 C 7.566406 13.679688 7.550781 13.679688 7.535156 13.679688 C 7.535156 13.757812 7.535156 13.839844 7.535156 13.921875 C 7.519531 13.921875 7.503906 13.921875 7.488281 13.921875 C 7.488281 14 7.488281 14.078125 7.488281 14.160156 C 7.472656 14.160156 7.457031 14.160156 7.441406 14.160156 C 7.441406 14.222656 7.441406 14.285156 7.441406 14.351562 C 7.425781 14.351562 7.410156 14.351562 7.390625 14.351562 C 7.390625 14.429688 7.390625 14.511719 7.390625 14.59375 C 7.375 14.59375 7.359375 14.59375 7.34375 14.59375 C 7.34375 14.671875 7.34375 14.75 7.34375 14.832031 C 7.328125 14.832031 7.3125 14.832031 7.296875 14.832031 C 7.296875 14.894531 7.296875 14.957031 7.296875 15.023438 C 7.28125 15.023438 7.265625 15.023438 7.246094 15.023438 C 7.246094 15.085938 7.246094 15.152344 7.246094 15.214844 C 6.835938 15.214844 6.425781 15.214844 6 15.214844 C 6 15.074219 6 14.929688 6 14.785156 C 5.859375 14.785156 5.714844 14.785156 5.566406 14.785156 C 5.566406 14.625 5.566406 14.46875 5.566406 14.304688 C 5.425781 14.304688 5.28125 14.304688 5.136719 14.304688 C 5.136719 14.144531 5.136719 13.988281 5.136719 13.824219 C 4.992188 13.824219 4.851562 13.824219 4.703125 13.824219 C 4.703125 13.664062 4.703125 13.507812 4.703125 13.34375 C 4.5625 13.34375 4.417969 13.34375 4.273438 13.34375 C 4.273438 13.1875 4.273438 13.027344 4.273438 12.863281 C 4.113281 12.863281 3.957031 12.863281 3.792969 12.863281 C 3.792969 12.738281 3.792969 12.609375 3.792969 12.480469 C 3.648438 12.480469 3.507812 12.480469 3.359375 12.480469 C 3.359375 12.273438 3.359375 12.066406 3.359375 11.855469 C 3.503906 11.855469 3.644531 11.855469 3.792969 11.855469 C 3.792969 11.699219 3.792969 11.539062 3.792969 11.375 C 3.949219 11.375 4.109375 11.375 4.273438 11.375 C 4.273438 11.21875 4.273438 11.058594 4.273438 10.894531 C 4.414062 10.894531 4.558594 10.894531 4.703125 10.894531 C 4.703125 10.753906 4.703125 10.609375 4.703125 10.464844 C 4.863281 10.464844 5.019531 10.464844 5.183594 10.464844 C 5.183594 10.304688 5.183594 10.148438 5.183594 9.984375 C 5.34375 9.984375 5.5 9.984375 5.664062 9.984375 C 5.664062 9.839844 5.664062 9.699219 5.664062 9.550781 C 5.824219 9.550781 5.980469 9.550781 6.144531 9.550781 C 6.144531 9.410156 6.144531 9.265625 6.144531 9.121094 C 6.699219 9.121094 7.253906 9.121094 7.824219 9.121094 C 7.824219 8.960938 7.824219 8.804688 7.824219 8.640625 C 7.980469 8.640625 8.140625 8.640625 8.304688 8.640625 C 8.304688 8.496094 8.304688 8.355469 8.304688 8.207031 Z M 8.304688 8.207031 "/>
<path style=" stroke:none;fill-rule:nonzero;fill:rgb(38.039216%,39.607844%,40.000001%);fill-opacity:1;" d="M 18.527344 5.230469 C 18.6875 5.230469 18.84375 5.230469 19.007812 5.230469 C 19.007812 5.707031 19.007812 6.183594 19.007812 6.671875 C 18.847656 6.671875 18.691406 6.671875 18.527344 6.671875 C 18.527344 6.832031 18.527344 6.988281 18.527344 7.152344 C 17.039062 7.152344 15.550781 7.152344 14.015625 7.152344 C 14.015625 7.261719 14.015625 7.375 14.015625 7.488281 C 13.953125 7.488281 13.890625 7.488281 13.824219 7.488281 C 13.824219 7.519531 13.824219 7.550781 13.824219 7.585938 C 13.808594 7.585938 13.792969 7.585938 13.777344 7.585938 C 13.777344 7.664062 13.777344 7.742188 13.777344 7.824219 C 13.761719 7.824219 13.746094 7.824219 13.726562 7.824219 C 13.726562 7.886719 13.726562 7.949219 13.726562 8.015625 C 13.710938 8.015625 13.695312 8.015625 13.679688 8.015625 C 13.679688 8.09375 13.679688 8.175781 13.679688 8.257812 C 13.664062 8.257812 13.648438 8.257812 13.632812 8.257812 C 13.632812 8.335938 13.632812 8.414062 13.632812 8.496094 C 13.617188 8.496094 13.601562 8.496094 13.585938 8.496094 C 13.585938 8.574219 13.585938 8.65625 13.585938 8.734375 C 13.566406 8.734375 13.550781 8.734375 13.535156 8.734375 C 13.535156 8.816406 13.535156 8.894531 13.535156 8.976562 C 13.519531 8.976562 13.503906 8.976562 13.488281 8.976562 C 13.488281 9.039062 13.488281 9.101562 13.488281 9.167969 C 13.472656 9.167969 13.457031 9.167969 13.441406 9.167969 C 13.441406 9.246094 13.441406 9.328125 13.441406 9.40625 C 13.425781 9.40625 13.410156 9.40625 13.390625 9.40625 C 13.390625 9.488281 13.390625 9.566406 13.390625 9.648438 C 13.375 9.648438 13.359375 9.648438 13.34375 9.648438 C 13.34375 9.726562 13.34375 9.804688 13.34375 9.886719 C 13.328125 9.886719 13.3125 9.886719 13.296875 9.886719 C 13.296875 9.953125 13.296875 10.015625 13.296875 10.078125 C 13.28125 10.078125 13.265625 10.078125 13.246094 10.078125 C 13.246094 10.160156 13.246094 10.238281 13.246094 10.320312 C 13.230469 10.320312 13.214844 10.320312 13.199219 10.320312 C 13.199219 10.398438 13.199219 10.476562 13.199219 10.558594 C 13.183594 10.558594 13.167969 10.558594 13.152344 10.558594 C 13.152344 10.640625 13.152344 10.71875 13.152344 10.800781 C 13.136719 10.800781 13.121094 10.800781 13.105469 10.800781 C 13.105469 10.878906 13.105469 10.957031 13.105469 11.039062 C 13.089844 11.039062 13.074219 11.039062 13.054688 11.039062 C 13.054688 11.101562 13.054688 11.167969 13.054688 11.230469 C 13.039062 11.230469 13.023438 11.230469 13.007812 11.230469 C 13.007812 11.3125 13.007812 11.390625 13.007812 11.472656 C 12.992188 11.472656 12.976562 11.472656 12.960938 11.472656 C 12.960938 11.550781 12.960938 11.628906 12.960938 11.710938 C 12.945312 11.710938 12.929688 11.710938 12.910156 11.710938 C 12.910156 11.792969 12.910156 11.871094 12.910156 11.953125 C 12.894531 11.953125 12.878906 11.953125 12.863281 11.953125 C 12.863281 12.015625 12.863281 12.078125 12.863281 12.144531 C 12.847656 12.144531 12.832031 12.144531 12.816406 12.144531 C 12.816406 12.222656 12.816406 12.300781 12.816406 12.382812 C 12.800781 12.382812 12.785156 12.382812 12.769531 12.382812 C 12.769531 12.464844 12.769531 12.542969 12.769531 12.625 C 12.753906 12.625 12.734375 12.625 12.71875 12.625 C 12.71875 12.703125 12.71875 12.78125 12.71875 12.863281 C 12.703125 12.863281 12.6875 12.863281 12.671875 12.863281 C 12.671875 12.941406 12.671875 13.023438 12.671875 13.105469 C 12.65625 13.105469 12.640625 13.105469 12.625 13.105469 C 12.625 13.167969 12.625 13.230469 12.625 13.296875 C 12.609375 13.296875 12.59375 13.296875 12.574219 13.296875 C 12.574219 13.375 12.574219 13.453125 12.574219 13.535156 C 12.558594 13.535156 12.542969 13.535156 12.527344 13.535156 C 12.527344 13.613281 12.527344 13.695312 12.527344 13.777344 C 12.511719 13.777344 12.496094 13.777344 12.480469 13.777344 C 12.480469 13.855469 12.480469 13.933594 12.480469 14.015625 C 12.464844 14.015625 12.449219 14.015625 12.433594 14.015625 C 12.433594 14.078125 12.433594 14.144531 12.433594 14.207031 C 12.417969 14.207031 12.398438 14.207031 12.382812 14.207031 C 12.382812 14.289062 12.382812 14.367188 12.382812 14.449219 C 12.367188 14.449219 12.351562 14.449219 12.335938 14.449219 C 12.335938 14.527344 12.335938 14.605469 12.335938 14.6875 C 12.320312 14.6875 12.304688 14.6875 12.289062 14.6875 C 12.289062 14.765625 12.289062 14.847656 12.289062 14.929688 C 12.273438 14.929688 12.257812 14.929688 12.238281 14.929688 C 12.238281 15.007812 12.238281 15.085938 12.238281 15.167969 C 12.222656 15.167969 12.207031 15.167969 12.191406 15.167969 C 12.191406 15.230469 12.191406 15.292969 12.191406 15.359375 C 12.175781 15.359375 12.160156 15.359375 12.144531 15.359375 C 12.144531 15.421875 12.144531 15.488281 12.144531 15.550781 C 12.128906 15.550781 12.113281 15.550781 12.097656 15.550781 C 12.097656 15.617188 12.097656 15.679688 12.097656 15.742188 C 12.082031 15.742188 12.0625 15.742188 12.046875 15.742188 C 12.046875 15.824219 12.046875 15.902344 12.046875 15.984375 C 12.03125 15.984375 12.015625 15.984375 12 15.984375 C 12 16.015625 12 16.046875 12 16.078125 C 11.808594 16.078125 11.621094 16.078125 11.425781 16.078125 C 11.425781 16.046875 11.425781 16.015625 11.425781 15.984375 C 11.441406 15.984375 11.457031 15.984375 11.472656 15.984375 C 11.472656 15.921875 11.472656 15.855469 11.472656 15.792969 C 11.488281 15.792969 11.503906 15.792969 11.519531 15.792969 C 11.519531 15.710938 11.519531 15.632812 11.519531 15.550781 C 11.535156 15.550781 11.550781 15.550781 11.566406 15.550781 C 11.566406 15.488281 11.566406 15.425781 11.566406 15.359375 C 11.582031 15.359375 11.601562 15.359375 11.617188 15.359375 C 11.617188 15.28125 11.617188 15.203125 11.617188 15.121094 C 11.632812 15.121094 11.648438 15.121094 11.664062 15.121094 C 11.664062 15.039062 11.664062 14.960938 11.664062 14.878906 C 11.679688 14.878906 11.695312 14.878906 11.710938 14.878906 C 11.710938 14.816406 11.710938 14.753906 11.710938 14.6875 C 11.726562 14.6875 11.742188 14.6875 11.761719 14.6875 C 11.761719 14.609375 11.761719 14.53125 11.761719 14.449219 C 11.777344 14.449219 11.792969 14.449219 11.808594 14.449219 C 11.808594 14.367188 11.808594 14.289062 11.808594 14.207031 C 11.824219 14.207031 11.839844 14.207031 11.855469 14.207031 C 11.855469 14.144531 11.855469 14.082031 11.855469 14.015625 C 11.871094 14.015625 11.886719 14.015625 11.902344 14.015625 C 11.902344 13.9375 11.902344 13.859375 11.902344 13.777344 C 11.917969 13.777344 11.9375 13.777344 11.953125 13.777344 C 11.953125 13.695312 11.953125 13.617188 11.953125 13.535156 C 11.96875 13.535156 11.984375 13.535156 12 13.535156 C 12 13.472656 12 13.410156 12 13.34375 C 12.015625 13.34375 12.03125 13.34375 12.046875 13.34375 C 12.046875 13.265625 12.046875 13.1875 12.046875 13.105469 C 12.0625 13.105469 12.078125 13.105469 12.097656 13.105469 C 12.097656 13.039062 12.097656 12.976562 12.097656 12.910156 C 12.113281 12.910156 12.128906 12.910156 12.144531 12.910156 C 12.144531 12.832031 12.144531 12.753906 12.144531 12.671875 C 12.160156 12.671875 12.175781 12.671875 12.191406 12.671875 C 12.191406 12.59375 12.191406 12.511719 12.191406 12.433594 C 12.207031 12.433594 12.222656 12.433594 12.238281 12.433594 C 12.238281 12.367188 12.238281 12.304688 12.238281 12.238281 C 12.253906 12.238281 12.273438 12.238281 12.289062 12.238281 C 12.289062 12.160156 12.289062 12.082031 12.289062 12 C 12.304688 12 12.320312 12 12.335938 12 C 12.335938 11.921875 12.335938 11.839844 12.335938 11.761719 C 12.351562 11.761719 12.367188 11.761719 12.382812 11.761719 C 12.382812 11.695312 12.382812 11.632812 12.382812 11.566406 C 12.398438 11.566406 12.414062 11.566406 12.433594 11.566406 C 12.433594 11.488281 12.433594 11.410156 12.433594 11.328125 C 12.449219 11.328125 12.464844 11.328125 12.480469 11.328125 C 12.480469 11.265625 12.480469 11.203125 12.480469 11.136719 C 12.496094 11.136719 12.511719 11.136719 12.527344 11.136719 C 12.527344 11.058594 12.527344 10.976562 12.527344 10.894531 C 12.542969 10.894531 12.558594 10.894531 12.574219 10.894531 C 12.574219 10.816406 12.574219 10.738281 12.574219 10.65625 C 12.59375 10.65625 12.609375 10.65625 12.625 10.65625 C 12.625 10.59375 12.625 10.527344 12.625 10.464844 C 12.640625 10.464844 12.65625 10.464844 12.671875 10.464844 C 12.671875 10.386719 12.671875 10.304688 12.671875 10.222656 C 12.6875 10.222656 12.703125 10.222656 12.71875 10.222656 C 12.71875 10.144531 12.71875 10.066406 12.71875 9.984375 C 12.734375 9.984375 12.75 9.984375 12.769531 9.984375 C 12.769531 9.921875 12.769531 9.855469 12.769531 9.792969 C 12.785156 9.792969 12.800781 9.792969 12.816406 9.792969 C 12.816406 9.710938 12.816406 9.632812 12.816406 9.550781 C 12.832031 9.550781 12.847656 9.550781 12.863281 9.550781 C 12.863281 9.472656 12.863281 9.394531 12.863281 9.3125 C 12.878906 9.3125 12.894531 9.3125 12.910156 9.3125 C 12.910156 9.25 12.910156 9.183594 12.910156 9.121094 C 12.929688 9.121094 12.945312 9.121094 12.960938 9.121094 C 12.960938 9.039062 12.960938 8.960938 12.960938 8.878906 C 12.976562 8.878906 12.992188 8.878906 13.007812 8.878906 C 13.007812 8.816406 13.007812 8.753906 13.007812 8.6875 C 13.023438 8.6875 13.039062 8.6875 13.054688 8.6875 C 13.054688 8.609375 13.054688 8.53125 13.054688 8.449219 C 13.070312 8.449219 13.085938 8.449219 13.105469 8.449219 C 13.105469 8.367188 13.105469 8.289062 13.105469 8.207031 C 13.121094 8.207031 13.136719 8.207031 13.152344 8.207031 C 13.152344 8.144531 13.152344 8.082031 13.152344 8.015625 C 13.167969 8.015625 13.183594 8.015625 13.199219 8.015625 C 13.199219 7.9375 13.199219 7.859375 13.199219 7.777344 C 13.214844 7.777344 13.230469 7.777344 13.246094 7.777344 C 13.246094 7.695312 13.246094 7.617188 13.246094 7.535156 C 13.265625 7.535156 13.28125 7.535156 13.296875 7.535156 C 13.296875 7.472656 13.296875 7.410156 13.296875 7.34375 C 13.3125 7.34375 13.328125 7.34375 13.34375 7.34375 C 13.34375 7.296875 13.34375 7.25 13.34375 7.199219 C 13.488281 7.199219 13.628906 7.199219 13.777344 7.199219 C 13.777344 7.027344 13.777344 6.851562 13.777344 6.671875 C 15.152344 6.671875 16.53125 6.671875 17.953125 6.671875 C 17.953125 6.546875 17.953125 6.417969 17.953125 6.289062 C 18.109375 6.289062 18.269531 6.289062 18.433594 6.289062 C 18.433594 6.003906 18.433594 5.71875 18.433594 5.425781 C 18.464844 5.425781 18.496094 5.425781 18.527344 5.425781 C 18.527344 5.359375 18.527344 5.296875 18.527344 5.230469 Z M 18.527344 5.230469 "/>
<path style=" stroke:none;fill-rule:nonzero;fill:rgb(92.156863%,92.941177%,92.54902%);fill-opacity:1;" d="M 6.480469 4.894531 C 10.457031 4.894531 14.433594 4.894531 18.527344 4.894531 C 18.527344 5.070312 18.527344 5.246094 18.527344 5.425781 C 14.695312 5.425781 10.863281 5.425781 6.910156 5.425781 C 6.910156 5.535156 6.910156 5.644531 6.910156 5.761719 C 6.753906 5.761719 6.59375 5.761719 6.433594 5.761719 C 6.433594 6.535156 6.433594 7.3125 6.433594 8.113281 C 6.289062 8.113281 6.148438 8.113281 6 8.113281 C 6 7.175781 6 6.242188 6 5.28125 C 6.160156 5.28125 6.316406 5.28125 6.480469 5.28125 C 6.480469 5.152344 6.480469 5.027344 6.480469 4.894531 Z M 6.480469 4.894531 "/>
<path style=" stroke:none;fill-rule:nonzero;fill:rgb(91.764706%,92.54902%,92.54902%);fill-opacity:1;" d="M 9.503906 7.199219 C 9.726562 7.199219 9.949219 7.199219 10.175781 7.199219 C 10.175781 7.230469 10.175781 7.261719 10.175781 7.296875 C 10.160156 7.296875 10.144531 7.296875 10.128906 7.296875 C 10.128906 7.375 10.128906 7.453125 10.128906 7.535156 C 10.113281 7.535156 10.097656 7.535156 10.078125 7.535156 C 10.078125 7.597656 10.078125 7.664062 10.078125 7.726562 C 10.0625 7.726562 10.046875 7.726562 10.03125 7.726562 C 10.03125 7.808594 10.03125 7.886719 10.03125 7.96875 C 10.015625 7.96875 10 7.96875 9.984375 7.96875 C 9.984375 8.046875 9.984375 8.125 9.984375 8.207031 C 9.96875 8.207031 9.953125 8.207031 9.9375 8.207031 C 9.9375 8.289062 9.9375 8.367188 9.9375 8.449219 C 9.921875 8.449219 9.90625 8.449219 9.886719 8.449219 C 9.886719 8.527344 9.886719 8.605469 9.886719 8.6875 C 9.871094 8.6875 9.855469 8.6875 9.839844 8.6875 C 9.839844 8.765625 9.839844 8.847656 9.839844 8.929688 C 9.824219 8.929688 9.808594 8.929688 9.792969 8.929688 C 9.792969 9.007812 9.792969 9.085938 9.792969 9.167969 C 9.777344 9.167969 9.761719 9.167969 9.742188 9.167969 C 9.742188 9.230469 9.742188 9.292969 9.742188 9.359375 C 9.726562 9.359375 9.710938 9.359375 9.695312 9.359375 C 9.695312 9.4375 9.695312 9.519531 9.695312 9.601562 C 9.679688 9.601562 9.664062 9.601562 9.648438 9.601562 C 9.648438 9.679688 9.648438 9.757812 9.648438 9.839844 C 9.632812 9.839844 9.617188 9.839844 9.601562 9.839844 C 9.601562 9.917969 9.601562 10 9.601562 10.078125 C 9.585938 10.078125 9.566406 10.078125 9.550781 10.078125 C 9.550781 10.160156 9.550781 10.238281 9.550781 10.320312 C 9.535156 10.320312 9.519531 10.320312 9.503906 10.320312 C 9.503906 10.398438 9.503906 10.476562 9.503906 10.558594 C 9.488281 10.558594 9.472656 10.558594 9.457031 10.558594 C 9.457031 10.640625 9.457031 10.71875 9.457031 10.800781 C 9.441406 10.800781 9.425781 10.800781 9.40625 10.800781 C 9.40625 10.863281 9.40625 10.925781 9.40625 10.992188 C 9.390625 10.992188 9.375 10.992188 9.359375 10.992188 C 9.359375 11.070312 9.359375 11.152344 9.359375 11.230469 C 9.34375 11.230469 9.328125 11.230469 9.3125 11.230469 C 9.3125 11.3125 9.3125 11.390625 9.3125 11.472656 C 9.296875 11.472656 9.28125 11.472656 9.265625 11.472656 C 9.265625 11.550781 9.265625 11.628906 9.265625 11.710938 C 9.25 11.710938 9.230469 11.710938 9.214844 11.710938 C 9.214844 11.792969 9.214844 11.871094 9.214844 11.953125 C 9.199219 11.953125 9.183594 11.953125 9.167969 11.953125 C 9.167969 12.03125 9.167969 12.109375 9.167969 12.191406 C 9.152344 12.191406 9.136719 12.191406 9.121094 12.191406 C 9.121094 12.269531 9.121094 12.351562 9.121094 12.433594 C 9.105469 12.433594 9.089844 12.433594 9.070312 12.433594 C 9.070312 12.496094 9.070312 12.558594 9.070312 12.625 C 9.054688 12.625 9.039062 12.625 9.023438 12.625 C 9.023438 12.703125 9.023438 12.78125 9.023438 12.863281 C 9.007812 12.863281 8.992188 12.863281 8.976562 12.863281 C 8.976562 12.941406 8.976562 13.023438 8.976562 13.105469 C 8.960938 13.105469 8.945312 13.105469 8.929688 13.105469 C 8.929688 13.183594 8.929688 13.261719 8.929688 13.34375 C 8.914062 13.34375 8.894531 13.34375 8.878906 13.34375 C 8.878906 13.421875 8.878906 13.503906 8.878906 13.585938 C 8.863281 13.585938 8.847656 13.585938 8.832031 13.585938 C 8.832031 13.664062 8.832031 13.742188 8.832031 13.824219 C 8.816406 13.824219 8.800781 13.824219 8.785156 13.824219 C 8.785156 13.902344 8.785156 13.980469 8.785156 14.0625 C 8.769531 14.0625 8.753906 14.0625 8.734375 14.0625 C 8.734375 14.128906 8.734375 14.191406 8.734375 14.257812 C 8.71875 14.257812 8.703125 14.257812 8.6875 14.257812 C 8.6875 14.335938 8.6875 14.414062 8.6875 14.496094 C 8.671875 14.496094 8.65625 14.496094 8.640625 14.496094 C 8.640625 14.574219 8.640625 14.65625 8.640625 14.734375 C 8.625 14.734375 8.609375 14.734375 8.59375 14.734375 C 8.59375 14.816406 8.59375 14.894531 8.59375 14.976562 C 8.574219 14.976562 8.558594 14.976562 8.542969 14.976562 C 8.542969 15.054688 8.542969 15.132812 8.542969 15.214844 C 8.527344 15.214844 8.511719 15.214844 8.496094 15.214844 C 8.496094 15.296875 8.496094 15.375 8.496094 15.457031 C 8.480469 15.457031 8.464844 15.457031 8.449219 15.457031 C 8.449219 15.535156 8.449219 15.613281 8.449219 15.695312 C 8.433594 15.695312 8.417969 15.695312 8.398438 15.695312 C 8.398438 15.757812 8.398438 15.824219 8.398438 15.886719 C 8.382812 15.886719 8.367188 15.886719 8.351562 15.886719 C 8.351562 15.96875 8.351562 16.046875 8.351562 16.128906 C 8.335938 16.128906 8.320312 16.128906 8.304688 16.128906 C 8.304688 16.160156 8.304688 16.191406 8.304688 16.222656 C 8.207031 16.222656 8.113281 16.222656 8.015625 16.222656 C 8.015625 16.320312 8.015625 16.414062 8.015625 16.511719 C 7.714844 16.511719 7.414062 16.511719 7.105469 16.511719 C 7.105469 16.65625 7.105469 16.796875 7.105469 16.945312 C 6.976562 16.945312 6.851562 16.945312 6.71875 16.945312 C 6.71875 17.246094 6.71875 17.546875 6.71875 17.855469 C 6.578125 17.855469 6.433594 17.855469 6.289062 17.855469 C 6.289062 17.414062 6.289062 16.96875 6.289062 16.511719 C 6.429688 16.511719 6.574219 16.511719 6.71875 16.511719 C 6.71875 16.371094 6.71875 16.226562 6.71875 16.078125 C 7.070312 16.078125 7.417969 16.078125 7.777344 16.078125 C 7.777344 16.03125 7.777344 15.984375 7.777344 15.9375 C 7.792969 15.9375 7.808594 15.9375 7.824219 15.9375 C 7.824219 15.855469 7.824219 15.777344 7.824219 15.695312 C 7.839844 15.695312 7.855469 15.695312 7.871094 15.695312 C 7.871094 15.617188 7.871094 15.539062 7.871094 15.457031 C 7.886719 15.457031 7.902344 15.457031 7.921875 15.457031 C 7.921875 15.375 7.921875 15.296875 7.921875 15.214844 C 7.9375 15.214844 7.953125 15.214844 7.96875 15.214844 C 7.96875 15.136719 7.96875 15.058594 7.96875 14.976562 C 7.984375 14.976562 8 14.976562 8.015625 14.976562 C 8.015625 14.898438 8.015625 14.816406 8.015625 14.734375 C 8.03125 14.734375 8.046875 14.734375 8.0625 14.734375 C 8.0625 14.65625 8.0625 14.578125 8.0625 14.496094 C 8.078125 14.496094 8.09375 14.496094 8.113281 14.496094 C 8.113281 14.417969 8.113281 14.335938 8.113281 14.257812 C 8.128906 14.257812 8.144531 14.257812 8.160156 14.257812 C 8.160156 14.175781 8.160156 14.097656 8.160156 14.015625 C 8.175781 14.015625 8.191406 14.015625 8.207031 14.015625 C 8.207031 13.9375 8.207031 13.859375 8.207031 13.777344 C 8.222656 13.777344 8.238281 13.777344 8.257812 13.777344 C 8.257812 13.695312 8.257812 13.617188 8.257812 13.535156 C 8.273438 13.535156 8.289062 13.535156 8.304688 13.535156 C 8.304688 13.457031 8.304688 13.378906 8.304688 13.296875 C 8.320312 13.296875 8.335938 13.296875 8.351562 13.296875 C 8.351562 13.21875 8.351562 13.136719 8.351562 13.054688 C 8.367188 13.054688 8.382812 13.054688 8.398438 13.054688 C 8.398438 12.976562 8.398438 12.898438 8.398438 12.816406 C 8.414062 12.816406 8.433594 12.816406 8.449219 12.816406 C 8.449219 12.738281 8.449219 12.65625 8.449219 12.574219 C 8.464844 12.574219 8.480469 12.574219 8.496094 12.574219 C 8.496094 12.496094 8.496094 12.417969 8.496094 12.335938 C 8.511719 12.335938 8.527344 12.335938 8.542969 12.335938 C 8.542969 12.257812 8.542969 12.175781 8.542969 12.097656 C 8.558594 12.097656 8.574219 12.097656 8.59375 12.097656 C 8.59375 12.015625 8.59375 11.9375 8.59375 11.855469 C 8.609375 11.855469 8.625 11.855469 8.640625 11.855469 C 8.640625 11.777344 8.640625 11.699219 8.640625 11.617188 C 8.65625 11.617188 8.671875 11.617188 8.6875 11.617188 C 8.6875 11.535156 8.6875 11.457031 8.6875 11.375 C 8.703125 11.375 8.71875 11.375 8.734375 11.375 C 8.734375 11.296875 8.734375 11.21875 8.734375 11.136719 C 8.75 11.136719 8.769531 11.136719 8.785156 11.136719 C 8.785156 11.058594 8.785156 10.976562 8.785156 10.894531 C 8.800781 10.894531 8.816406 10.894531 8.832031 10.894531 C 8.832031 10.816406 8.832031 10.738281 8.832031 10.65625 C 8.847656 10.65625 8.863281 10.65625 8.878906 10.65625 C 8.878906 10.578125 8.878906 10.496094 8.878906 10.414062 C 8.894531 10.414062 8.910156 10.414062 8.929688 10.414062 C 8.929688 10.335938 8.929688 10.257812 8.929688 10.175781 C 8.945312 10.175781 8.960938 10.175781 8.976562 10.175781 C 8.976562 10.097656 8.976562 10.019531 8.976562 9.9375 C 8.992188 9.9375 9.007812 9.9375 9.023438 9.9375 C 9.023438 9.855469 9.023438 9.777344 9.023438 9.695312 C 9.039062 9.695312 9.054688 9.695312 9.070312 9.695312 C 9.070312 9.617188 9.070312 9.539062 9.070312 9.457031 C 9.085938 9.457031 9.105469 9.457031 9.121094 9.457031 C 9.121094 9.375 9.121094 9.296875 9.121094 9.214844 C 9.136719 9.214844 9.152344 9.214844 9.167969 9.214844 C 9.167969 9.136719 9.167969 9.058594 9.167969 8.976562 C 9.183594 8.976562 9.199219 8.976562 9.214844 8.976562 C 9.214844 8.898438 9.214844 8.816406 9.214844 8.734375 C 9.230469 8.734375 9.246094 8.734375 9.265625 8.734375 C 9.265625 8.65625 9.265625 8.578125 9.265625 8.496094 C 9.28125 8.496094 9.296875 8.496094 9.3125 8.496094 C 9.3125 8.417969 9.3125 8.335938 9.3125 8.257812 C 9.328125 8.257812 9.34375 8.257812 9.359375 8.257812 C 9.359375 8.175781 9.359375 8.097656 9.359375 8.015625 C 9.375 8.015625 9.390625 8.015625 9.40625 8.015625 C 9.40625 7.9375 9.40625 7.859375 9.40625 7.777344 C 9.425781 7.777344 9.441406 7.777344 9.457031 7.777344 C 9.457031 7.679688 9.457031 7.585938 9.457031 7.488281 C 9.472656 7.488281 9.488281 7.488281 9.503906 7.488281 C 9.503906 7.394531 9.503906 7.296875 9.503906 7.199219 Z M 9.503906 7.199219 "/>
<path style=" stroke:none;fill-rule:nonzero;fill:rgb(9.411765%,33.333334%,10.980392%);fill-opacity:1;" d="M 14.640625 8.160156 C 15.605469 8.160156 16.574219 8.160156 17.566406 8.160156 C 17.566406 8.320312 17.566406 8.476562 17.566406 8.640625 C 16.761719 8.640625 15.953125 8.640625 15.121094 8.640625 C 15.121094 8.671875 15.121094 8.703125 15.121094 8.734375 C 15.105469 8.734375 15.089844 8.734375 15.070312 8.734375 C 15.070312 8.800781 15.070312 8.863281 15.070312 8.929688 C 15.054688 8.929688 15.039062 8.929688 15.023438 8.929688 C 15.023438 9.007812 15.023438 9.085938 15.023438 9.167969 C 15.007812 9.167969 14.992188 9.167969 14.976562 9.167969 C 14.976562 9.230469 14.976562 9.292969 14.976562 9.359375 C 14.960938 9.359375 14.945312 9.359375 14.929688 9.359375 C 14.929688 9.4375 14.929688 9.519531 14.929688 9.601562 C 14.914062 9.601562 14.894531 9.601562 14.878906 9.601562 C 14.878906 9.664062 14.878906 9.726562 14.878906 9.792969 C 14.863281 9.792969 14.847656 9.792969 14.832031 9.792969 C 14.832031 9.871094 14.832031 9.949219 14.832031 10.03125 C 14.816406 10.03125 14.800781 10.03125 14.785156 10.03125 C 14.785156 10.109375 14.785156 10.191406 14.785156 10.273438 C 14.769531 10.273438 14.753906 10.273438 14.734375 10.273438 C 14.734375 10.335938 14.734375 10.398438 14.734375 10.464844 C 14.71875 10.464844 14.703125 10.464844 14.6875 10.464844 C 14.6875 10.527344 14.6875 10.589844 14.6875 10.65625 C 14.671875 10.65625 14.65625 10.65625 14.640625 10.65625 C 14.640625 10.734375 14.640625 10.8125 14.640625 10.894531 C 14.625 10.894531 14.609375 10.894531 14.59375 10.894531 C 14.59375 10.960938 14.59375 11.023438 14.59375 11.089844 C 14.574219 11.089844 14.558594 11.089844 14.542969 11.089844 C 14.542969 11.167969 14.542969 11.246094 14.542969 11.328125 C 14.527344 11.328125 14.511719 11.328125 14.496094 11.328125 C 14.496094 11.390625 14.496094 11.453125 14.496094 11.519531 C 14.480469 11.519531 14.464844 11.519531 14.449219 11.519531 C 14.449219 11.597656 14.449219 11.679688 14.449219 11.761719 C 14.433594 11.761719 14.417969 11.761719 14.398438 11.761719 C 14.398438 11.824219 14.398438 11.886719 14.398438 11.953125 C 14.382812 11.953125 14.367188 11.953125 14.351562 11.953125 C 14.351562 12.015625 14.351562 12.078125 14.351562 12.144531 C 14.335938 12.144531 14.320312 12.144531 14.304688 12.144531 C 14.304688 12.222656 14.304688 12.300781 14.304688 12.382812 C 14.289062 12.382812 14.273438 12.382812 14.257812 12.382812 C 14.257812 12.449219 14.257812 12.511719 14.257812 12.574219 C 14.238281 12.574219 14.222656 12.574219 14.207031 12.574219 C 14.207031 12.65625 14.207031 12.734375 14.207031 12.816406 C 14.191406 12.816406 14.175781 12.816406 14.160156 12.816406 C 14.160156 12.878906 14.160156 12.941406 14.160156 13.007812 C 14.144531 13.007812 14.128906 13.007812 14.113281 13.007812 C 14.113281 13.085938 14.113281 13.167969 14.113281 13.246094 C 14.097656 13.246094 14.082031 13.246094 14.0625 13.246094 C 14.0625 13.3125 14.0625 13.375 14.0625 13.441406 C 14.046875 13.441406 14.03125 13.441406 14.015625 13.441406 C 14.015625 13.519531 14.015625 13.597656 14.015625 13.679688 C 14 13.679688 13.984375 13.679688 13.96875 13.679688 C 13.96875 13.742188 13.96875 13.808594 13.96875 13.871094 C 13.953125 13.871094 13.9375 13.871094 13.921875 13.871094 C 13.921875 13.953125 13.921875 14.03125 13.921875 14.113281 C 13.902344 14.113281 13.886719 14.113281 13.871094 14.113281 C 13.871094 14.175781 13.871094 14.238281 13.871094 14.304688 C 13.855469 14.304688 13.839844 14.304688 13.824219 14.304688 C 13.824219 14.382812 13.824219 14.460938 13.824219 14.542969 C 13.808594 14.542969 13.792969 14.542969 13.777344 14.542969 C 13.777344 14.65625 13.777344 14.765625 13.777344 14.878906 C 13.871094 14.878906 13.964844 14.878906 14.0625 14.878906 C 14.0625 15.101562 14.0625 15.324219 14.0625 15.550781 C 13.9375 15.550781 13.8125 15.550781 13.679688 15.550781 C 13.679688 15.347656 13.679688 15.140625 13.679688 14.929688 C 13.523438 14.929688 13.363281 14.929688 13.199219 14.929688 C 13.199219 14.800781 13.199219 14.675781 13.199219 14.542969 C 13.214844 14.542969 13.230469 14.542969 13.246094 14.542969 C 13.246094 14.480469 13.246094 14.417969 13.246094 14.351562 C 13.265625 14.351562 13.28125 14.351562 13.296875 14.351562 C 13.296875 14.273438 13.296875 14.195312 13.296875 14.113281 C 13.3125 14.113281 13.328125 14.113281 13.34375 14.113281 C 13.34375 14.03125 13.34375 13.953125 13.34375 13.871094 C 13.359375 13.871094 13.375 13.871094 13.390625 13.871094 C 13.390625 13.808594 13.390625 13.746094 13.390625 13.679688 C 13.40625 13.679688 13.421875 13.679688 13.441406 13.679688 C 13.441406 13.601562 13.441406 13.523438 13.441406 13.441406 C 13.457031 13.441406 13.472656 13.441406 13.488281 13.441406 C 13.488281 13.375 13.488281 13.3125 13.488281 13.246094 C 13.503906 13.246094 13.519531 13.246094 13.535156 13.246094 C 13.535156 13.167969 13.535156 13.089844 13.535156 13.007812 C 13.550781 13.007812 13.566406 13.007812 13.585938 13.007812 C 13.585938 12.945312 13.585938 12.882812 13.585938 12.816406 C 13.601562 12.816406 13.617188 12.816406 13.632812 12.816406 C 13.632812 12.738281 13.632812 12.65625 13.632812 12.574219 C 13.648438 12.574219 13.664062 12.574219 13.679688 12.574219 C 13.679688 12.496094 13.679688 12.417969 13.679688 12.335938 C 13.695312 12.335938 13.710938 12.335938 13.726562 12.335938 C 13.726562 12.273438 13.726562 12.210938 13.726562 12.144531 C 13.742188 12.144531 13.757812 12.144531 13.777344 12.144531 C 13.777344 12.066406 13.777344 11.984375 13.777344 11.902344 C 13.792969 11.902344 13.808594 11.902344 13.824219 11.902344 C 13.824219 11.839844 13.824219 11.777344 13.824219 11.710938 C 13.839844 11.710938 13.855469 11.710938 13.871094 11.710938 C 13.871094 11.632812 13.871094 11.554688 13.871094 11.472656 C 13.886719 11.472656 13.902344 11.472656 13.921875 11.472656 C 13.921875 11.410156 13.921875 11.34375 13.921875 11.28125 C 13.9375 11.28125 13.953125 11.28125 13.96875 11.28125 C 13.96875 11.199219 13.96875 11.121094 13.96875 11.039062 C 13.984375 11.039062 14 11.039062 14.015625 11.039062 C 14.015625 10.976562 14.015625 10.914062 14.015625 10.847656 C 14.03125 10.847656 14.046875 10.847656 14.0625 10.847656 C 14.0625 10.769531 14.0625 10.691406 14.0625 10.609375 C 14.078125 10.609375 14.09375 10.609375 14.113281 10.609375 C 14.113281 10.527344 14.113281 10.449219 14.113281 10.367188 C 14.128906 10.367188 14.144531 10.367188 14.160156 10.367188 C 14.160156 10.304688 14.160156 10.242188 14.160156 10.175781 C 14.175781 10.175781 14.191406 10.175781 14.207031 10.175781 C 14.207031 10.097656 14.207031 10.019531 14.207031 9.9375 C 14.222656 9.9375 14.238281 9.9375 14.257812 9.9375 C 14.257812 9.871094 14.257812 9.808594 14.257812 9.742188 C 14.273438 9.742188 14.289062 9.742188 14.304688 9.742188 C 14.304688 9.664062 14.304688 9.585938 14.304688 9.503906 C 14.320312 9.503906 14.335938 9.503906 14.351562 9.503906 C 14.351562 9.441406 14.351562 9.378906 14.351562 9.3125 C 14.367188 9.3125 14.382812 9.3125 14.398438 9.3125 C 14.398438 9.234375 14.398438 9.152344 14.398438 9.070312 C 14.414062 9.070312 14.433594 9.070312 14.449219 9.070312 C 14.449219 8.992188 14.449219 8.914062 14.449219 8.832031 C 14.464844 8.832031 14.480469 8.832031 14.496094 8.832031 C 14.496094 8.769531 14.496094 8.707031 14.496094 8.640625 C 14.511719 8.640625 14.527344 8.640625 14.542969 8.640625 C 14.542969 8.5625 14.542969 8.480469 14.542969 8.398438 C 14.558594 8.398438 14.574219 8.398438 14.59375 8.398438 C 14.59375 8.335938 14.59375 8.273438 14.59375 8.207031 C 14.609375 8.207031 14.625 8.207031 14.640625 8.207031 C 14.640625 8.191406 14.640625 8.175781 14.640625 8.160156 Z M 14.640625 8.160156 "/>
<path style=" stroke:none;fill-rule:nonzero;fill:rgb(38.039216%,39.607844%,40.000001%);fill-opacity:1;" d="M 12.863281 16.511719 C 13.039062 16.511719 13.210938 16.511719 13.390625 16.511719 C 13.390625 16.6875 13.390625 16.859375 13.390625 17.039062 C 13.234375 17.039062 13.074219 17.039062 12.910156 17.039062 C 12.910156 17.199219 12.910156 17.355469 12.910156 17.519531 C 12.785156 17.519531 12.660156 17.519531 12.527344 17.519531 C 12.527344 17.664062 12.527344 17.804688 12.527344 17.953125 C 12.386719 17.953125 12.242188 17.953125 12.097656 17.953125 C 12.097656 18.09375 12.097656 18.238281 12.097656 18.382812 C 10.320312 18.382812 8.546875 18.382812 6.71875 18.382812 C 6.71875 18.210938 6.71875 18.035156 6.71875 17.855469 C 8.414062 17.855469 10.109375 17.855469 11.855469 17.855469 C 11.855469 17.699219 11.855469 17.539062 11.855469 17.375 C 12.03125 17.375 12.203125 17.375 12.382812 17.375 C 12.382812 17.21875 12.382812 17.058594 12.382812 16.894531 C 12.542969 16.894531 12.699219 16.894531 12.863281 16.894531 C 12.863281 16.769531 12.863281 16.640625 12.863281 16.511719 Z M 12.863281 16.511719 "/>
<path style=" stroke:none;fill-rule:nonzero;fill:rgb(9.411765%,33.333334%,10.980392%);fill-opacity:1;" d="M 14.351562 15.550781 C 14.429688 15.550781 14.511719 15.550781 14.59375 15.550781 C 14.59375 15.664062 14.59375 15.773438 14.59375 15.886719 C 14.65625 15.886719 14.71875 15.886719 14.785156 15.886719 C 14.785156 16.554688 14.785156 17.21875 14.785156 17.902344 C 14.609375 17.902344 14.433594 17.902344 14.257812 17.902344 C 14.257812 18.078125 14.257812 18.253906 14.257812 18.433594 C 14.097656 18.433594 13.9375 18.433594 13.777344 18.433594 C 13.777344 18.574219 13.777344 18.71875 13.777344 18.863281 C 13.617188 18.863281 13.460938 18.863281 13.296875 18.863281 C 13.296875 18.992188 13.296875 19.117188 13.296875 19.246094 C 13.167969 19.246094 13.042969 19.246094 12.910156 19.246094 C 12.910156 19.375 12.910156 19.5 12.910156 19.632812 C 12.324219 19.632812 11.738281 19.632812 11.136719 19.632812 C 11.136719 19.757812 11.136719 19.886719 11.136719 20.015625 C 11.230469 20.015625 11.324219 20.015625 11.425781 20.015625 C 11.425781 20.175781 11.425781 20.332031 11.425781 20.496094 C 11.28125 20.496094 11.140625 20.496094 10.992188 20.496094 C 10.992188 20.335938 10.992188 20.179688 10.992188 20.015625 C 10.832031 20.015625 10.675781 20.015625 10.511719 20.015625 C 10.511719 19.875 10.511719 19.730469 10.511719 19.585938 C 10.371094 19.585938 10.226562 19.585938 10.078125 19.585938 C 10.078125 19.457031 10.078125 19.332031 10.078125 19.199219 C 10.953125 19.199219 11.824219 19.199219 12.71875 19.199219 C 12.71875 19.105469 12.71875 19.011719 12.71875 18.910156 C 12.832031 18.910156 12.941406 18.910156 13.054688 18.910156 C 13.054688 18.753906 13.054688 18.59375 13.054688 18.433594 C 13.199219 18.433594 13.339844 18.433594 13.488281 18.433594 C 13.488281 18.273438 13.488281 18.113281 13.488281 17.953125 C 13.628906 17.953125 13.773438 17.953125 13.921875 17.953125 C 13.921875 17.792969 13.921875 17.636719 13.921875 17.472656 C 14.0625 17.472656 14.207031 17.472656 14.351562 17.472656 C 14.351562 16.839844 14.351562 16.203125 14.351562 15.550781 Z M 14.351562 15.550781 "/>
<path style=" stroke:none;fill-rule:nonzero;fill:rgb(16.862746%,47.450981%,17.647059%);fill-opacity:1;" d="M 11.664062 2.878906 C 11.964844 2.878906 12.265625 2.878906 12.574219 2.878906 C 12.574219 3.039062 12.574219 3.195312 12.574219 3.359375 C 12.734375 3.359375 12.894531 3.359375 13.054688 3.359375 C 13.054688 3.519531 13.054688 3.675781 13.054688 3.839844 C 13.199219 3.839844 13.339844 3.839844 13.488281 3.839844 C 13.488281 4 13.488281 4.15625 13.488281 4.320312 C 12.617188 4.320312 11.746094 4.320312 10.847656 4.320312 C 10.847656 4.160156 10.847656 4.003906 10.847656 3.839844 C 10.992188 3.839844 11.132812 3.839844 11.28125 3.839844 C 11.28125 3.679688 11.28125 3.523438 11.28125 3.359375 C 11.40625 3.359375 11.535156 3.359375 11.664062 3.359375 C 11.664062 3.203125 11.664062 3.042969 11.664062 2.878906 Z M 11.664062 2.878906 "/>
<path style=" stroke:none;fill-rule:nonzero;fill:rgb(38.039216%,39.607844%,40.000001%);fill-opacity:1;" d="M 7.535156 6.625 C 8.265625 6.625 8.992188 6.625 9.742188 6.625 C 9.742188 6.8125 9.742188 7.003906 9.742188 7.199219 C 9.078125 7.199219 8.414062 7.199219 7.726562 7.199219 C 7.726562 7.3125 7.726562 7.421875 7.726562 7.535156 C 7.617188 7.535156 7.507812 7.535156 7.390625 7.535156 C 7.390625 7.726562 7.390625 7.917969 7.390625 8.113281 C 7.074219 8.113281 6.757812 8.113281 6.433594 8.113281 C 6.433594 7.90625 6.433594 7.699219 6.433594 7.488281 C 6.621094 7.488281 6.8125 7.488281 7.007812 7.488281 C 7.007812 7.359375 7.007812 7.234375 7.007812 7.105469 C 7.183594 7.105469 7.355469 7.105469 7.535156 7.105469 C 7.535156 6.945312 7.535156 6.789062 7.535156 6.625 Z M 7.535156 6.625 "/>
<path style=" stroke:none;fill-rule:nonzero;fill:rgb(9.019608%,32.941177%,10.588235%);fill-opacity:1;" d="M 11.425781 20.496094 C 11.851562 20.496094 12.28125 20.496094 12.71875 20.496094 C 12.71875 20.621094 12.71875 20.75 12.71875 20.878906 C 12.59375 20.878906 12.464844 20.878906 12.335938 20.878906 C 12.335938 21.070312 12.335938 21.261719 12.335938 21.457031 C 12.195312 21.457031 12.050781 21.457031 11.902344 21.457031 C 11.902344 21.28125 11.902344 21.109375 11.902344 20.929688 C 11.746094 20.929688 11.585938 20.929688 11.425781 20.929688 C 11.425781 20.785156 11.425781 20.644531 11.425781 20.496094 Z M 11.425781 20.496094 "/>
<path style=" stroke:none;fill-rule:nonzero;fill:rgb(92.156863%,92.941177%,92.54902%);fill-opacity:1;" d="M 12.433594 15.792969 C 12.75 15.792969 13.066406 15.792969 13.390625 15.792969 C 13.390625 15.886719 13.390625 15.980469 13.390625 16.078125 C 13.1875 16.078125 12.980469 16.078125 12.769531 16.078125 C 12.769531 16.207031 12.769531 16.332031 12.769531 16.464844 C 12.46875 16.464844 12.167969 16.464844 11.855469 16.464844 C 11.855469 16.335938 11.855469 16.210938 11.855469 16.078125 C 12.046875 16.078125 12.234375 16.078125 12.433594 16.078125 C 12.433594 15.984375 12.433594 15.890625 12.433594 15.792969 Z M 12.433594 15.792969 "/>
<path style=" stroke:none;fill-rule:nonzero;fill:rgb(9.411765%,33.333334%,10.980392%);fill-opacity:1;" d="M 6.625 9.121094 C 7.019531 9.121094 7.414062 9.121094 7.824219 9.121094 C 7.824219 9.261719 7.824219 9.40625 7.824219 9.550781 C 7.429688 9.550781 7.03125 9.550781 6.625 9.550781 C 6.625 9.410156 6.625 9.265625 6.625 9.121094 Z M 6.625 9.121094 "/>
<path style=" stroke:none;fill-rule:nonzero;fill:rgb(32.941177%,61.56863%,30.588236%);fill-opacity:1;" d="M 4.703125 10.464844 C 4.863281 10.464844 5.019531 10.464844 5.183594 10.464844 C 5.183594 10.621094 5.183594 10.78125 5.183594 10.945312 C 5.042969 10.945312 4.898438 10.945312 4.753906 10.945312 C 4.753906 11.085938 4.753906 11.230469 4.753906 11.375 C 4.59375 11.375 4.433594 11.375 4.273438 11.375 C 4.273438 11.21875 4.273438 11.058594 4.273438 10.894531 C 4.414062 10.894531 4.558594 10.894531 4.703125 10.894531 C 4.703125 10.753906 4.703125 10.609375 4.703125 10.464844 Z M 4.703125 10.464844 "/>
<path style=" stroke:none;fill-rule:nonzero;fill:rgb(28.235295%,60.392159%,28.235295%);fill-opacity:1;" d="M 11.664062 2.878906 C 11.964844 2.878906 12.265625 2.878906 12.574219 2.878906 C 12.574219 3.039062 12.574219 3.195312 12.574219 3.359375 C 12.273438 3.359375 11.972656 3.359375 11.664062 3.359375 C 11.664062 3.203125 11.664062 3.042969 11.664062 2.878906 Z M 11.664062 2.878906 "/>
<path style=" stroke:none;fill-rule:nonzero;fill:rgb(9.411765%,33.333334%,10.980392%);fill-opacity:1;" d="M 20.785156 11.808594 C 20.941406 11.808594 21.101562 11.808594 21.265625 11.808594 C 21.265625 12.015625 21.265625 12.21875 21.265625 12.433594 C 21.105469 12.433594 20.945312 12.433594 20.785156 12.433594 C 20.785156 12.226562 20.785156 12.019531 20.785156 11.808594 Z M 20.785156 11.808594 "/>
<path style=" stroke:none;fill-rule:nonzero;fill:rgb(32.941177%,61.56863%,30.588236%);fill-opacity:1;" d="M 3.359375 11.855469 C 3.503906 11.855469 3.644531 11.855469 3.792969 11.855469 C 3.792969 12.0625 3.792969 12.269531 3.792969 12.480469 C 3.648438 12.480469 3.507812 12.480469 3.359375 12.480469 C 3.359375 12.273438 3.359375 12.066406 3.359375 11.855469 Z M 3.359375 11.855469 "/>
<path style=" stroke:none;fill-rule:nonzero;fill:rgb(9.411765%,33.333334%,10.980392%);fill-opacity:1;" d="M 17.136719 15.550781 C 17.292969 15.550781 17.453125 15.550781 17.617188 15.550781 C 17.617188 15.710938 17.617188 15.867188 17.617188 16.03125 C 17.457031 16.03125 17.300781 16.03125 17.136719 16.03125 C 17.136719 15.875 17.136719 15.714844 17.136719 15.550781 Z M 17.136719 15.550781 "/>
<path style=" stroke:none;fill-rule:nonzero;fill:rgb(9.411765%,33.333334%,10.980392%);fill-opacity:1;" d="M 18.046875 14.640625 C 18.207031 14.640625 18.363281 14.640625 18.527344 14.640625 C 18.527344 14.796875 18.527344 14.957031 18.527344 15.121094 C 18.371094 15.121094 18.210938 15.121094 18.046875 15.121094 C 18.046875 14.960938 18.046875 14.804688 18.046875 14.640625 Z M 18.046875 14.640625 "/>
<path style=" stroke:none;fill-rule:nonzero;fill:rgb(32.941177%,61.56863%,30.588236%);fill-opacity:1;" d="M 3.792969 11.375 C 3.949219 11.375 4.109375 11.375 4.273438 11.375 C 4.273438 11.535156 4.273438 11.691406 4.273438 11.855469 C 4.113281 11.855469 3.957031 11.855469 3.792969 11.855469 C 3.792969 11.699219 3.792969 11.539062 3.792969 11.375 Z M 3.792969 11.375 "/>
<path style=" stroke:none;fill-rule:nonzero;fill:rgb(32.941177%,61.56863%,30.588236%);fill-opacity:1;" d="M 5.183594 9.984375 C 5.34375 9.984375 5.5 9.984375 5.664062 9.984375 C 5.664062 10.140625 5.664062 10.300781 5.664062 10.464844 C 5.503906 10.464844 5.347656 10.464844 5.183594 10.464844 C 5.183594 10.304688 5.183594 10.148438 5.183594 9.984375 Z M 5.183594 9.984375 "/>
<path style=" stroke:none;fill-rule:nonzero;fill:rgb(28.235295%,60.392159%,28.235295%);fill-opacity:1;" d="M 12.574219 3.359375 C 12.734375 3.359375 12.894531 3.359375 13.054688 3.359375 C 13.054688 3.519531 13.054688 3.675781 13.054688 3.839844 C 12.898438 3.839844 12.738281 3.839844 12.574219 3.839844 C 12.574219 3.679688 12.574219 3.523438 12.574219 3.359375 Z M 12.574219 3.359375 "/>
<path style=" stroke:none;fill-rule:nonzero;fill:rgb(9.411765%,33.333334%,10.980392%);fill-opacity:1;" d="M 13.105469 19.535156 C 13.261719 19.535156 13.421875 19.535156 13.585938 19.535156 C 13.585938 19.679688 13.585938 19.820312 13.585938 19.96875 C 13.425781 19.96875 13.265625 19.96875 13.105469 19.96875 C 13.105469 19.824219 13.105469 19.683594 13.105469 19.535156 Z M 13.105469 19.535156 "/>
<path style=" stroke:none;fill-rule:nonzero;fill:rgb(9.411765%,33.333334%,10.980392%);fill-opacity:1;" d="M 14.832031 17.808594 C 14.992188 17.808594 15.148438 17.808594 15.3125 17.808594 C 15.3125 17.949219 15.3125 18.09375 15.3125 18.238281 C 15.152344 18.238281 14.996094 18.238281 14.832031 18.238281 C 14.832031 18.097656 14.832031 17.953125 14.832031 17.808594 Z M 14.832031 17.808594 "/>
<path style=" stroke:none;fill-rule:nonzero;fill:rgb(9.411765%,33.333334%,10.980392%);fill-opacity:1;" d="M 15.742188 16.945312 C 15.902344 16.945312 16.0625 16.945312 16.222656 16.945312 C 16.222656 17.085938 16.222656 17.230469 16.222656 17.375 C 16.066406 17.375 15.90625 17.375 15.742188 17.375 C 15.742188 17.234375 15.742188 17.089844 15.742188 16.945312 Z M 15.742188 16.945312 "/>
<path style=" stroke:none;fill-rule:nonzero;fill:rgb(9.411765%,33.333334%,10.980392%);fill-opacity:1;" d="M 16.222656 16.464844 C 16.367188 16.464844 16.507812 16.464844 16.65625 16.464844 C 16.65625 16.621094 16.65625 16.78125 16.65625 16.945312 C 16.511719 16.945312 16.371094 16.945312 16.222656 16.945312 C 16.222656 16.785156 16.222656 16.628906 16.222656 16.464844 Z M 16.222656 16.464844 "/>
<path style=" stroke:none;fill-rule:nonzero;fill:rgb(9.411765%,33.333334%,10.980392%);fill-opacity:1;" d="M 16.65625 16.03125 C 16.8125 16.03125 16.972656 16.03125 17.136719 16.03125 C 17.136719 16.175781 17.136719 16.316406 17.136719 16.464844 C 16.976562 16.464844 16.820312 16.464844 16.65625 16.464844 C 16.65625 16.320312 16.65625 16.179688 16.65625 16.03125 Z M 16.65625 16.03125 "/>
<path style=" stroke:none;fill-rule:nonzero;fill:rgb(9.411765%,33.333334%,10.980392%);fill-opacity:1;" d="M 6 14.785156 C 6.160156 14.785156 6.316406 14.785156 6.480469 14.785156 C 6.480469 14.925781 6.480469 15.070312 6.480469 15.214844 C 6.320312 15.214844 6.164062 15.214844 6 15.214844 C 6 15.074219 6 14.929688 6 14.785156 Z M 6 14.785156 "/>
<path style=" stroke:none;fill-rule:nonzero;fill:rgb(9.411765%,33.333334%,10.980392%);fill-opacity:1;" d="M 5.566406 14.304688 C 5.710938 14.304688 5.851562 14.304688 6 14.304688 C 6 14.460938 6 14.621094 6 14.785156 C 5.859375 14.785156 5.714844 14.785156 5.566406 14.785156 C 5.566406 14.625 5.566406 14.46875 5.566406 14.304688 Z M 5.566406 14.304688 "/>
<path style=" stroke:none;fill-rule:nonzero;fill:rgb(9.411765%,33.333334%,10.980392%);fill-opacity:1;" d="M 5.136719 13.824219 C 5.277344 13.824219 5.421875 13.824219 5.566406 13.824219 C 5.566406 13.980469 5.566406 14.140625 5.566406 14.304688 C 5.425781 14.304688 5.28125 14.304688 5.136719 14.304688 C 5.136719 14.144531 5.136719 13.988281 5.136719 13.824219 Z M 5.136719 13.824219 "/>
<path style=" stroke:none;fill-rule:nonzero;fill:rgb(9.411765%,33.333334%,10.980392%);fill-opacity:1;" d="M 18.960938 13.777344 C 19.117188 13.777344 19.277344 13.777344 19.441406 13.777344 C 19.441406 13.917969 19.441406 14.0625 19.441406 14.207031 C 19.28125 14.207031 19.125 14.207031 18.960938 14.207031 C 18.960938 14.066406 18.960938 13.921875 18.960938 13.777344 Z M 18.960938 13.777344 "/>
<path style=" stroke:none;fill-rule:nonzero;fill:rgb(9.411765%,33.333334%,10.980392%);fill-opacity:1;" d="M 4.703125 13.34375 C 4.847656 13.34375 4.988281 13.34375 5.136719 13.34375 C 5.136719 13.503906 5.136719 13.660156 5.136719 13.824219 C 4.992188 13.824219 4.851562 13.824219 4.703125 13.824219 C 4.703125 13.664062 4.703125 13.507812 4.703125 13.34375 Z M 4.703125 13.34375 "/>
<path style=" stroke:none;fill-rule:nonzero;fill:rgb(9.411765%,33.333334%,10.980392%);fill-opacity:1;" d="M 19.441406 13.296875 C 19.582031 13.296875 19.726562 13.296875 19.871094 13.296875 C 19.871094 13.453125 19.871094 13.613281 19.871094 13.777344 C 19.730469 13.777344 19.585938 13.777344 19.441406 13.777344 C 19.441406 13.617188 19.441406 13.460938 19.441406 13.296875 Z M 19.441406 13.296875 "/>
<path style=" stroke:none;fill-rule:nonzero;fill:rgb(9.411765%,33.333334%,10.980392%);fill-opacity:1;" d="M 4.273438 12.863281 C 4.414062 12.863281 4.558594 12.863281 4.703125 12.863281 C 4.703125 13.023438 4.703125 13.179688 4.703125 13.34375 C 4.5625 13.34375 4.417969 13.34375 4.273438 13.34375 C 4.273438 13.1875 4.273438 13.027344 4.273438 12.863281 Z M 4.273438 12.863281 "/>
<path style=" stroke:none;fill-rule:nonzero;fill:rgb(9.411765%,33.333334%,10.980392%);fill-opacity:1;" d="M 20.304688 12.433594 C 20.460938 12.433594 20.621094 12.433594 20.785156 12.433594 C 20.785156 12.574219 20.785156 12.71875 20.785156 12.863281 C 20.625 12.863281 20.46875 12.863281 20.304688 12.863281 C 20.304688 12.722656 20.304688 12.578125 20.304688 12.433594 Z M 20.304688 12.433594 "/>
<path style=" stroke:none;fill-rule:nonzero;fill:rgb(32.941177%,61.56863%,30.588236%);fill-opacity:1;" d="M 5.664062 9.550781 C 5.824219 9.550781 5.980469 9.550781 6.144531 9.550781 C 6.144531 9.695312 6.144531 9.835938 6.144531 9.984375 C 5.984375 9.984375 5.828125 9.984375 5.664062 9.984375 C 5.664062 9.839844 5.664062 9.699219 5.664062 9.550781 Z M 5.664062 9.550781 "/>
<path style=" stroke:none;fill-rule:nonzero;fill:rgb(32.941177%,61.56863%,30.588236%);fill-opacity:1;" d="M 6.144531 9.121094 C 6.300781 9.121094 6.460938 9.121094 6.625 9.121094 C 6.625 9.261719 6.625 9.40625 6.625 9.550781 C 6.464844 9.550781 6.308594 9.550781 6.144531 9.550781 C 6.144531 9.410156 6.144531 9.265625 6.144531 9.121094 Z M 6.144531 9.121094 "/>
<path style=" stroke:none;fill-rule:nonzero;fill:rgb(28.235295%,60.392159%,28.235295%);fill-opacity:1;" d="M 13.054688 3.839844 C 13.199219 3.839844 13.339844 3.839844 13.488281 3.839844 C 13.488281 4 13.488281 4.15625 13.488281 4.320312 C 13.34375 4.320312 13.203125 4.320312 13.054688 4.320312 C 13.054688 4.160156 13.054688 4.003906 13.054688 3.839844 Z M 13.054688 3.839844 "/>
<path style=" stroke:none;fill-rule:nonzero;fill:rgb(28.235295%,60.392159%,28.235295%);fill-opacity:1;" d="M 10.847656 3.839844 C 10.992188 3.839844 11.132812 3.839844 11.28125 3.839844 C 11.28125 4 11.28125 4.15625 11.28125 4.320312 C 11.136719 4.320312 10.996094 4.320312 10.847656 4.320312 C 10.847656 4.160156 10.847656 4.003906 10.847656 3.839844 Z M 10.847656 3.839844 "/>
<path style=" stroke:none;fill-rule:nonzero;fill:rgb(9.411765%,33.333334%,10.980392%);fill-opacity:1;" d="M 13.585938 19.152344 C 13.757812 19.152344 13.933594 19.152344 14.113281 19.152344 C 14.113281 19.277344 14.113281 19.40625 14.113281 19.535156 C 13.9375 19.535156 13.761719 19.535156 13.585938 19.535156 C 13.585938 19.410156 13.585938 19.28125 13.585938 19.152344 Z M 13.585938 19.152344 "/>
<path style=" stroke:none;fill-rule:nonzero;fill:rgb(9.411765%,33.333334%,10.980392%);fill-opacity:1;" d="M 14.113281 18.71875 C 14.253906 18.71875 14.398438 18.71875 14.542969 18.71875 C 14.542969 18.863281 14.542969 19.003906 14.542969 19.152344 C 14.402344 19.152344 14.257812 19.152344 14.113281 19.152344 C 14.113281 19.007812 14.113281 18.867188 14.113281 18.71875 Z M 14.113281 18.71875 "/>
<path style=" stroke:none;fill-rule:nonzero;fill:rgb(9.411765%,33.333334%,10.980392%);fill-opacity:1;" d="M 15.3125 17.375 C 15.453125 17.375 15.597656 17.375 15.742188 17.375 C 15.742188 17.519531 15.742188 17.660156 15.742188 17.808594 C 15.601562 17.808594 15.457031 17.808594 15.3125 17.808594 C 15.3125 17.664062 15.3125 17.523438 15.3125 17.375 Z M 15.3125 17.375 "/>
<path style=" stroke:none;fill-rule:nonzero;fill:rgb(9.411765%,33.333334%,10.980392%);fill-opacity:1;" d="M 17.617188 15.121094 C 17.757812 15.121094 17.902344 15.121094 18.046875 15.121094 C 18.046875 15.261719 18.046875 15.40625 18.046875 15.550781 C 17.90625 15.550781 17.761719 15.550781 17.617188 15.550781 C 17.617188 15.410156 17.617188 15.265625 17.617188 15.121094 Z M 17.617188 15.121094 "/>
<path style=" stroke:none;fill-rule:nonzero;fill:rgb(9.411765%,33.333334%,10.980392%);fill-opacity:1;" d="M 18.527344 14.207031 C 18.671875 14.207031 18.8125 14.207031 18.960938 14.207031 C 18.960938 14.351562 18.960938 14.492188 18.960938 14.640625 C 18.816406 14.640625 18.675781 14.640625 18.527344 14.640625 C 18.527344 14.496094 18.527344 14.355469 18.527344 14.207031 Z M 18.527344 14.207031 "/>
<path style=" stroke:none;fill-rule:nonzero;fill:rgb(9.411765%,33.333334%,10.980392%);fill-opacity:1;" d="M 19.871094 12.863281 C 20.015625 12.863281 20.15625 12.863281 20.304688 12.863281 C 20.304688 13.007812 20.304688 13.148438 20.304688 13.296875 C 20.160156 13.296875 20.019531 13.296875 19.871094 13.296875 C 19.871094 13.152344 19.871094 13.011719 19.871094 12.863281 Z M 19.871094 12.863281 "/>
<path style=" stroke:none;fill-rule:nonzero;fill:rgb(9.411765%,32.941177%,10.980392%);fill-opacity:1;" d="M 12.71875 19.96875 C 12.847656 19.96875 12.972656 19.96875 13.105469 19.96875 C 13.105469 20.125 13.105469 20.285156 13.105469 20.449219 C 12.976562 20.449219 12.851562 20.449219 12.71875 20.449219 C 12.71875 20.289062 12.71875 20.132812 12.71875 19.96875 Z M 12.71875 19.96875 "/>
<path style=" stroke:none;fill-rule:nonzero;fill:rgb(9.411765%,33.333334%,10.980392%);fill-opacity:1;" d="M 3.792969 12.480469 C 3.949219 12.480469 4.109375 12.480469 4.273438 12.480469 C 4.273438 12.605469 4.273438 12.734375 4.273438 12.863281 C 4.113281 12.863281 3.957031 12.863281 3.792969 12.863281 C 3.792969 12.738281 3.792969 12.609375 3.792969 12.480469 Z M 3.792969 12.480469 "/>
<path style=" stroke:none;fill-rule:nonzero;fill:rgb(28.235295%,60.392159%,28.235295%);fill-opacity:1;" d="M 11.28125 3.359375 C 11.40625 3.359375 11.535156 3.359375 11.664062 3.359375 C 11.664062 3.519531 11.664062 3.675781 11.664062 3.839844 C 11.539062 3.839844 11.410156 3.839844 11.28125 3.839844 C 11.28125 3.679688 11.28125 3.523438 11.28125 3.359375 Z M 11.28125 3.359375 "/>
<path style=" stroke:none;fill-rule:nonzero;fill:rgb(9.411765%,33.333334%,10.980392%);fill-opacity:1;" d="M 14.542969 18.238281 C 14.640625 18.238281 14.734375 18.238281 14.832031 18.238281 C 14.832031 18.398438 14.832031 18.558594 14.832031 18.71875 C 14.738281 18.71875 14.640625 18.71875 14.542969 18.71875 C 14.542969 18.5625 14.542969 18.402344 14.542969 18.238281 Z M 14.542969 18.238281 "/>
</g>
</svg>
